#N canvas 1176 94 656 846 12;
#X obj 215 66 inlet;
#X obj 62 235 random 8;
#X msg 76 115 bang;
#X obj 40 416 r chords;
#X obj 150 466 select 0 1 2 3 4 5 6 7 8 9 10;
#X obj 147 300 +;
#X obj 150 526 bng 15 250 50 0 empty empty empty 17 7 0 10 #fcfcfc #000000 #000000;
#X obj 230 526 bng 15 250 50 0 empty empty empty 17 7 0 10 #fcfcfc #000000 #000000;
#X obj 170 526 bng 15 250 50 0 empty empty empty 17 7 0 10 #fcfcfc #000000 #000000;
#X obj 190 526 bng 15 250 50 0 empty empty empty 17 7 0 10 #fcfcfc #000000 #000000;
#X obj 210 526 bng 15 250 50 0 empty empty empty 17 7 0 10 #fcfcfc #000000 #000000;
#X obj 146 256 mod 3;
#X obj 252 526 bng 15 250 50 0 empty empty empty 17 7 0 10 #fcfcfc #000000 #000000;
#X obj 332 526 bng 15 250 50 0 empty empty empty 17 7 0 10 #fcfcfc #000000 #000000;
#X obj 272 526 bng 15 250 50 0 empty empty empty 17 7 0 10 #fcfcfc #000000 #000000;
#X obj 292 526 bng 15 250 50 0 empty empty empty 17 7 0 10 #fcfcfc #000000 #000000;
#X obj 312 526 bng 15 250 50 0 empty empty empty 17 7 0 10 #fcfcfc #000000 #000000;
#X obj 350 526 bng 15 250 50 0 empty empty empty 17 7 0 10 #fcfcfc #000000 #000000;
#X obj 370 526 bng 15 250 50 0 empty empty empty 17 7 0 10 #fcfcfc #000000 #000000;
#X obj 210 180 random 4;
#X obj 40 526 unpack f f f;
#X obj 238 631 + 60;
#X obj 288 631 + 60;
#X obj 338 631 + 60;
#X obj 238 671 f;
#X obj 278 671 f;
#X obj 308 671 f;
#X obj 88 671 f;
#X obj 128 671 f;
#X obj 158 671 f;
#X obj 88 631 + 48;
#X obj 138 631 + 48;
#X obj 188 631 + 48;
#X obj 210 217 + 2;
#X obj 388 671 f;
#X obj 428 671 f;
#X obj 458 671 f;
#X obj 388 631 + 72;
#X obj 438 631 + 72;
#X obj 488 631 + 72;
#X obj 295 752 outlet;
#X obj 300 50 inlet;
#X obj 94 37 inlet;
#X text 10 10 Bang here to randomize;
#X text 165 36 Starting note;
#X text 280 20 Number of notes in arpeggio;
#X obj 285 268 random 2;
#X obj 195 388 -;
#X obj 183 332 t b f;
#X obj 233 322 f 9;
#X obj 39 673 f;
#X obj 527 671 f;
#X obj 557 671 f;
#X obj 39 633 + 36;
#X obj 537 631 + 84;
#X obj 587 631 + 84;
#X obj 151 421 selector2 0 1;
#X floatatom 301 326 5 0 0 0 - - - 0;
#X obj 260 144 random 3;
#X obj 316 178 selector3 0 1 2;
#X obj 336 136 r s4;
#X obj 382 137 r s8;
#X obj 437 138 r s16;
#X connect 0 0 5 1;
#X connect 1 0 5 1;
#X connect 2 0 1 0;
#X connect 2 0 19 0;
#X connect 2 0 46 0;
#X connect 2 0 49 0;
#X connect 2 0 58 0;
#X connect 3 0 20 0;
#X connect 4 0 6 0;
#X connect 4 1 8 0;
#X connect 4 2 9 0;
#X connect 4 3 10 0;
#X connect 4 4 7 0;
#X connect 4 5 12 0;
#X connect 4 6 14 0;
#X connect 4 7 15 0;
#X connect 4 8 16 0;
#X connect 4 9 13 0;
#X connect 4 10 17 0;
#X connect 4 11 18 0;
#X connect 5 0 48 0;
#X connect 5 0 56 1;
#X connect 6 0 50 0;
#X connect 7 0 24 0;
#X connect 8 0 27 0;
#X connect 9 0 28 0;
#X connect 10 0 29 0;
#X connect 11 0 5 0;
#X connect 12 0 25 0;
#X connect 13 0 36 0;
#X connect 14 0 26 0;
#X connect 15 0 34 0;
#X connect 16 0 35 0;
#X connect 17 0 51 0;
#X connect 18 0 52 0;
#X connect 19 0 33 0;
#X connect 20 0 21 0;
#X connect 20 0 30 0;
#X connect 20 0 37 0;
#X connect 20 0 54 0;
#X connect 20 1 22 0;
#X connect 20 1 31 0;
#X connect 20 1 38 0;
#X connect 20 1 55 0;
#X connect 20 2 23 0;
#X connect 20 2 32 0;
#X connect 20 2 39 0;
#X connect 20 2 53 0;
#X connect 21 0 24 1;
#X connect 22 0 25 1;
#X connect 23 0 26 1;
#X connect 24 0 40 0;
#X connect 25 0 40 0;
#X connect 26 0 40 0;
#X connect 27 0 40 0;
#X connect 28 0 40 0;
#X connect 29 0 40 0;
#X connect 30 0 27 1;
#X connect 31 0 28 1;
#X connect 32 0 29 1;
#X connect 33 0 11 1;
#X connect 34 0 40 0;
#X connect 35 0 40 0;
#X connect 36 0 40 0;
#X connect 37 0 34 1;
#X connect 38 0 35 1;
#X connect 39 0 36 1;
#X connect 41 0 11 1;
#X connect 42 0 2 0;
#X connect 46 0 56 0;
#X connect 46 0 57 0;
#X connect 47 0 56 2;
#X connect 48 0 47 0;
#X connect 48 1 47 1;
#X connect 49 0 47 0;
#X connect 50 0 40 0;
#X connect 51 0 40 0;
#X connect 52 0 40 0;
#X connect 53 0 50 1;
#X connect 54 0 51 1;
#X connect 55 0 52 1;
#X connect 56 0 4 0;
#X connect 58 0 59 0;
#X connect 59 0 11 0;
#X connect 60 0 59 1;
#X connect 61 0 59 2;
#X connect 62 0 59 3;
