#N canvas 723 -905 479 537 12;
#N canvas 104 104 450 250 (subpatch) 0;
#X array Chord_notes 7 float 3;
#A 0 0 3 7 10 14 17 21;
#X coords 0 23 7 0 200 140 1 0 0;
#X restore 25 206 graph;
#N canvas 0 50 450 250 (subpatch) 0;
#X array Chord_onoff 7 float 3;
#A 0 0 0 0 0 0 0 0;
#X coords 0 1 7 -1 200 140 1;
#X restore 236 206 graph;
#X obj 32 148 s new_chord;
#X msg 128 136 \; Chord_notes read chords/\$1.txt;
#X msg 63 7 Cmaj;
#X obj 32 40 symbol;
#X msg 102 7 G7;
#X msg 139 6 Fmaj6m;
#X msg 32 8 Cm;
#N canvas 208 208 450 250 (subpatch) 0;
#X array Chord_truenotes 7 float 3;
#A 0 0 3 7 10 2 5 9;
#X coords 0 11 7 0 200 140 1 0 0;
#X restore 237 371 graph;
#X obj 32 87 t b b s;
#N canvas 863 -645 491 477 get_truenotes 0;
#X obj 29 94 until;
#X obj 29 118 f;
#X obj 63 117 + 1;
#X obj 29 38 t b 0;
#X msg 29 69 7;
#X obj 29 172 tabread Chord_notes;
#X obj 41 351 + 0;
#X obj 29 145 t f f;
#X obj 41 420 tabwrite Chord_truenotes;
#X obj 48 297 spigot;
#X obj 87 240 == 0;
#X obj 30 322 f;
#X obj 41 386 mod 12;
#X obj 28 9 inlet;
#X obj 29 256 t f b f;
#X obj 229 418 tabwrite Chord_truenotes_unwrapped;
#X connect 0 0 1 0;
#X connect 1 0 2 0;
#X connect 1 0 7 0;
#X connect 2 0 1 1;
#X connect 3 0 4 0;
#X connect 3 1 1 1;
#X connect 3 1 11 1;
#X connect 4 0 0 0;
#X connect 5 0 14 0;
#X connect 6 0 12 0;
#X connect 6 0 15 0;
#X connect 7 0 5 0;
#X connect 7 1 8 1;
#X connect 7 1 10 0;
#X connect 7 1 15 1;
#X connect 9 0 11 1;
#X connect 10 0 9 1;
#X connect 11 0 6 0;
#X connect 12 0 8 0;
#X connect 13 0 3 0;
#X connect 14 0 9 0;
#X connect 14 1 11 0;
#X connect 14 2 6 1;
#X restore 149 106 pd get_truenotes;
#N canvas 0 50 450 250 (subpatch) 0;
#X array Chord_truenotes_unwrapped 7 float 3;
#A 0 0 3 7 10 14 17 21;
#X coords 0 35 7 0 200 140 1 0 0;
#X restore 29 372 graph;
#X connect 4 0 5 0;
#X connect 5 0 10 0;
#X connect 6 0 5 0;
#X connect 7 0 5 0;
#X connect 8 0 5 0;
#X connect 10 0 2 0;
#X connect 10 1 11 0;
#X connect 10 2 3 0;
