#N canvas 675 101 1117 829 12;
#X obj 560 338 + 1;
#X obj 520 235 until;
#X obj 520 338 f;
#X msg 520 202 100;
#X floatatom 600 202 5 0 0 0 - - -, f 5;
#N canvas 671 217 450 303 (subpatch) 0;
#X array sequence 100 float 3 black black;
#A 0 1 1 1 1 6 6 6 6 6 6 6 6 5 5 5 5 4 4 4 4 4 4 4 4 5 5 5 5 6 6 6
6 5 5 5 5 2 2 2 2 5 5 5 5 6 6 6 6 6 6 6 6 6 6 6 6 5 5 5 5 3 3 3 3 1
1 1 1 2 2 2 2 5 5 5 5 5 5 5 5 1 1 1 1 6 6 6 6 2 2 2 2 1 1 1 1 4 4 4
4;
#X coords 0 7 100 0 200 140 1;
#X restore 30 30 graph;
#X obj 520 580 tabwrite sequence;
#X obj 680 448 mod 4;
#X obj 680 518 random 7;
#X obj 680 478 select 0;
#X obj 520 101 inlet;
#X obj 340 101 inlet;
#X obj 380 202 + 1;
#X obj 340 202 f;
#X obj 430 98 inlet;
#X msg 430 148 0;
#X obj 380 235 mod 100;
#X obj 340 332 tabread sequence;
#X text 504 68 generate;
#X text 340 68 metronome;
#X text 430 68 restart;
#X obj 340 381 outlet;
#X obj 520 540 float;
#X msg 520 508 bang;
#X msg 340 148 bang;
#X obj 520 148 t b b;
#X obj 520 388 t f f f;
#X connect 0 0 2 1;
#X connect 1 0 2 0;
#X connect 2 0 0 0;
#X connect 2 0 26 0;
#X connect 3 0 1 0;
#X connect 4 0 2 1;
#X connect 7 0 9 0;
#X connect 8 0 22 1;
#X connect 9 0 8 0;
#X connect 10 0 25 0;
#X connect 11 0 24 0;
#X connect 12 0 16 0;
#X connect 13 0 12 0;
#X connect 13 0 17 0;
#X connect 14 0 15 0;
#X connect 15 0 13 1;
#X connect 16 0 13 1;
#X connect 17 0 21 0;
#X connect 22 0 6 0;
#X connect 23 0 22 0;
#X connect 24 0 13 0;
#X connect 25 0 3 0;
#X connect 25 1 4 0;
#X connect 26 0 23 0;
#X connect 26 1 7 0;
#X connect 26 2 6 1;
