#N canvas 1078 99 752 837 12;
#X obj 16 522 line~;
#X obj 16 485 pack 0 5;
#X obj 13 572 inlet~;
#X obj 104 610 *~;
#X obj 224 561 / 127;
#X obj 105 562 vd~ \$0-delL;
#X obj 14 800 delwrite~ \$0-delL 2000;
#X obj 72 763 outlet~;
#X obj 147 289 r durtemps;
#N canvas 735 359 450 300 jail 0;
#X obj 10 33 hip~ 5;
#X obj 10 11 inlet~;
#X obj 10 77 outlet~;
#X obj 10 53 clip~ -1 1;
#X connect 0 0 3 0;
#X connect 1 0 0 0;
#X connect 3 0 2 0;
#X restore 14 766 pd jail;
#X obj 346 349 vsl 20 130 0 127 0 1 \$0-cutoff empty Cutoff 0 -9 0 12 #fcfcfc #000000 #000000 10157 1;
#X obj 399 350 vsl 20 130 0 127 0 1 \$0-Q empty Q 0 -9 0 12 #fcfcfc #000000 #000000 12900 1;
#X obj 227 311 nbx 5 18 1 16 0 0 \$0-timefactor empty 16th\ number 0 -10 0 12 #fcfcfc #000000 #000000 0 256;
#X obj 253 351 vsl 20 130 0 127 0 1 \$0-mult empty Mult 0 -9 0 12 #fcfcfc #000000 #000000 12900 1;
#X obj 19 280 r \$0-timefactor;
#X obj 62 313 r \$0-mult;
#X obj 62 346 / 127;
#X obj 301 341 vsl 20 140 0 127 0 1 \$0-feedback empty Feedback 0 -9 0 12 #fcfcfc #000000 #000000 9200 1;
#X obj 224 524 r \$0-feedback;
#X obj 368 308 tgl 20 1 \$0-filteronoff empty empty 0 -10 0 12 #fcfcfc #000000 #000000 1 1;
#N canvas 1432 86 447 425 filter 0;
#X obj 114 40 inlet~;
#X obj 113 367 outlet~;
#X obj 271 104 mtof;
#X msg 271 136 \$1 100;
#X obj 271 175 line~;
#X obj 270 84 + 10;
#X obj 259 225 vcf~;
#X obj 114 316 multiplex2~;
#X obj 270 53 r \$0-cutoff;
#X obj 336 75 r \$0-Q;
#X floatatom 136 277 5 0 0 0 - - - 0;
#X obj 119 224 r \$0-filteronoff;
#X obj 335 120 / 127;
#X connect 0 0 6 0;
#X connect 0 0 7 0;
#X connect 2 0 3 0;
#X connect 3 0 4 0;
#X connect 4 0 6 1;
#X connect 5 0 2 0;
#X connect 6 0 7 1;
#X connect 7 0 1 0;
#X connect 8 0 5 0;
#X connect 9 0 12 0;
#X connect 11 0 10 0;
#X connect 11 0 7 2;
#X connect 12 0 6 2;
#X restore 105 650 pd filter \$0;
#X obj 147 331 * 1000;
#X obj 19 326 / 4;
#X obj 19 416 *;
#X obj 18 450 *;
#X obj 61 373 t b f;
#X obj 147 363 t b f;
#X obj 435 350 vsl 20 130 0 127 0 1 \$0-volume empty Volume 0 -9 0 12 #fcfcfc #000000 #000000 6196 1;
#X obj 437 595 dbtorms;
#X obj 438 651 line~;
#X obj 438 622 t f 20;
#X obj 435 512 / 127;
#X obj 191 724 *~;
#X obj 417 20 r change;
#X obj 425 165 random 128;
#X obj 435 538 * 10;
#X obj 436 568 + 90;
#X obj 436 309 tgl 20 1 \$0-onoff empty empty 0 -10 0 12 #fcfcfc #000000 #000000 1 1;
#X obj 233 690 *~;
#X obj 298 606 r \$0-onoff;
#X obj 437 204 random 2;
#X obj 510 163 lfo 64;
#X floatatom 510 195 5 0 0 0 - - - 0;
#X obj 510 248 spigot;
#X obj 573 200 tgl 20 0 empty empty empty 0 -10 0 12 #fcfcfc #000000 #000000 0 1;
#X obj 575 160 random 2;
#X obj 346 122 random 128;
#X obj 246 192 random 16;
#X obj 419 56 bng 19 250 50 0 empty empty empty 0 -10 0 12 #fcfcfc #000000 #000000;
#X connect 0 0 5 0;
#X connect 1 0 0 0;
#X connect 2 0 9 0;
#X connect 3 0 20 0;
#X connect 4 0 3 1;
#X connect 5 0 3 0;
#X connect 8 0 21 0;
#X connect 9 0 6 0;
#X connect 14 0 22 0;
#X connect 15 0 16 0;
#X connect 16 0 25 0;
#X connect 18 0 4 0;
#X connect 20 0 9 0;
#X connect 20 0 32 0;
#X connect 21 0 26 0;
#X connect 22 0 23 0;
#X connect 23 0 24 0;
#X connect 24 0 1 0;
#X connect 25 0 23 0;
#X connect 25 1 23 1;
#X connect 26 0 24 0;
#X connect 26 1 24 1;
#X connect 27 0 31 0;
#X connect 28 0 30 0;
#X connect 29 0 38 0;
#X connect 30 0 29 0;
#X connect 30 1 29 1;
#X connect 31 0 35 0;
#X connect 32 0 7 0;
#X connect 33 0 48 0;
#X connect 34 0 27 0;
#X connect 35 0 36 0;
#X connect 36 0 28 0;
#X connect 38 0 32 1;
#X connect 39 0 38 1;
#X connect 40 0 37 0;
#X connect 41 0 42 0;
#X connect 42 0 43 0;
#X connect 43 0 10 0;
#X connect 44 0 43 1;
#X connect 45 0 44 0;
#X connect 46 0 10 0;
#X connect 47 0 12 0;
#X connect 48 0 47 0;
#X connect 48 0 46 0;
#X connect 48 0 46 1;
#X connect 48 0 34 0;
#X connect 48 0 45 0;
