#N canvas 38 100 752 582 12;
#X obj 191 129 *;
#X obj 19 177 line~;
#X obj 19 158 pack 0 5;
#X obj 176 248 *~;
#X obj 19 114 + 1;
#X obj 19 136 / 128;
#X obj 83 301 inlet~;
#X obj 174 339 *~;
#X obj 294 290 / 127;
#N canvas 530 103 447 425 filter 0;
#X obj 114 40 inlet~;
#X obj 113 367 outlet~;
#X obj 271 104 mtof;
#X msg 271 136 \$1 100;
#X obj 271 175 line~;
#X obj 270 84 + 10;
#X obj 336 139 / 300;
#X obj 259 225 vcf~;
#X obj 114 316 multiplex2~;
#X obj 270 53 r \$0-cutoff;
#X obj 336 75 r \$0-Q;
#X obj 134 228 r \$0-filtonoff;
#X connect 0 0 7 0;
#X connect 0 0 8 0;
#X connect 2 0 3 0;
#X connect 3 0 4 0;
#X connect 4 0 7 1;
#X connect 5 0 2 0;
#X connect 6 0 7 2;
#X connect 7 1 8 1;
#X connect 8 0 1 0;
#X connect 9 0 5 0;
#X connect 10 0 6 0;
#X connect 11 0 8 0;
#X restore 175 379 pd filter;
#X obj 14 20 table \$0-delL 2000;
#X obj 175 291 vd~ \$0-delL;
#X obj 136 464 delwrite~ \$0-delL 2000;
#X obj 194 427 outlet~;
#X obj 191 81 t b f;
#X text 235 137 ol-delay : variable delay ------------------------- Params : - durL - timefactor - feedback - cutoff - Q - filtonoff;
#X floatatom 76 80 5 0 0 0 - - - 0;
#X obj 192 55 r durtemps;
#N canvas 735 359 450 300 jail 0;
#X obj 10 33 hip~ 5;
#X obj 10 53 clip~ -0.5 0.5;
#X obj 10 11 inlet~;
#X obj 10 77 outlet~;
#X connect 0 0 1 0;
#X connect 1 0 3 0;
#X connect 2 0 0 0;
#X restore 136 430 pd jail;
#X obj 599 249 vsl 20 130 0 127 0 0 \$0-cutoff empty Cutoff 0 -9 0 12 #fcfcfc #000000 #000000 0 1;
#X obj 652 250 vsl 20 130 0 127 0 0 \$0-Q empty Q 0 -9 0 12 #fcfcfc #000000 #000000 0 1;
#X obj 480 211 nbx 5 18 1 16 0 0 \$0-timefactor empty 16th\ number 0 -10 0 12 #fcfcfc #000000 #000000 0 256;
#X obj 506 251 vsl 20 130 0 127 0 0 \$0-mult empty Mult 0 -9 0 12 #fcfcfc #000000 #000000 0 1;
#X obj 19 46 r \$0-timefactor;
#X obj 87 211 *~;
#X obj 106 141 r \$0-mult;
#X obj 106 174 / 127;
#X obj 554 209 vsl 20 170 0 127 0 0 \$0-feedback empty Feedback 0 -9 0 12 #fcfcfc #000000 #000000 0 1;
#X obj 294 253 r \$0-feedback;
#X obj 621 208 tgl 20 0 \$0-filteronoff empty empty 0 -10 0 12 #fcfcfc #000000 #000000 0 1;
#X connect 0 0 3 1;
#X connect 1 0 24 0;
#X connect 2 0 1 0;
#X connect 3 0 11 0;
#X connect 4 0 5 0;
#X connect 5 0 2 0;
#X connect 6 0 18 0;
#X connect 7 0 9 0;
#X connect 8 0 7 1;
#X connect 9 0 13 0;
#X connect 9 0 18 0;
#X connect 11 0 7 0;
#X connect 14 0 0 0;
#X connect 14 1 0 1;
#X connect 17 0 14 0;
#X connect 18 0 12 0;
#X connect 23 0 16 0;
#X connect 23 0 4 0;
#X connect 24 0 3 0;
#X connect 25 0 26 0;
#X connect 26 0 24 1;
#X connect 28 0 8 0;
