#N canvas 990 52 812 922 12;
#X obj 28 60 r s16;
#X obj 28 140 t f f;
#X obj 28 180 + 0;
#X obj 30 215 *;
#X obj 30 246 % 16;
#X obj 30 272 <;
#X obj 30 298 select 1;
#X obj 186 104 bng 10 250 50 0 empty empty empty 0 -10 0 12 #0f4710 #00ff04 #000000;
#X obj 186 119 bng 10 250 50 0 empty empty empty 0 -10 0 12 #551312 #ff0400 #000000;
#X obj 30 106 % 16;
#X obj 79 61 r n16;
#X obj 256 141 outlet;
#X obj 307 196 outlet;
#X obj 103 134 nbx 3 18 1 32 0 1 empty empty empty 0 -10 0 12 #fcfcfc #000000 #000000 13 256;
#X obj 151 134 nbx 3 18 0 32 0 1 empty empty empty 0 -10 0 12 #fcfcfc #000000 #000000 4 256;
#X obj 128 62 f \$1;
#X obj 169 61 f \$2;
#X obj 153 8 loadbang;
#X obj 414 125 - 2;
#X obj 388 168 +;
#X obj 414 48 r change;
#X obj 414 85 random 7;
#X connect 0 0 9 0;
#X connect 1 0 2 0;
#X connect 2 0 3 0;
#X connect 3 0 4 0;
#X connect 4 0 5 0;
#X connect 5 0 6 0;
#X connect 6 0 7 0;
#X connect 6 1 8 0;
#X connect 7 0 11 0;
#X connect 8 0 12 0;
#X connect 9 0 1 0;
#X connect 10 0 9 1;
#X connect 13 0 3 1;
#X connect 13 0 5 1;
#X connect 14 0 2 1;
#X connect 15 0 13 0;
#X connect 15 0 19 1;
#X connect 16 0 14 0;
#X connect 17 0 15 0;
#X connect 17 0 16 0;
#X connect 18 0 19 0;
#X connect 19 0 13 0;
#X connect 20 0 21 0;
#X connect 21 0 18 0;
#X connect 21 0 14 0;
#X coords 0 -1 1 1 100 60 1 100 100;
