#N canvas 145 186 981 809 12;
#X obj 259 26 metronome2;
#X obj 306 614 dac~;
#X obj 440 296 snare 1000 2000 200 20;
#X msg 809 206 hpf \$1;
#X msg 222 264 vol \$1;
#X obj 60 96 hradio 8 1 0 64 empty empty empty 0 -10 0 12 #fcfcfc #000000 #000000 0;
#X obj 61 51 r s16;
#X msg 591 261 vol \$1;
#X obj 809 10 vsl 20 170 5000 20000 0 0 empty empty empty 0 -9 0 12 #fcfcfc #000000 #000000 0 1;
#X floatatom 407 61 5 0 0 0 - - - 0;
#X obj 591 223 r prechange;
#X obj 12 289 kick 150 30 50;
#X obj 8 213 bang_pattern kickpat1;
#X obj 18 251 bng 20 250 50 0 empty empty empty 0 -10 0 12 #fcfcfc #000000 #000000;
#X obj 8 176 bng 20 250 50 0 empty empty empty 0 -10 0 12 #fcfcfc #000000 #000000;
#X obj 327 213 bang_pattern snarepat1;
#X obj 341 261 bng 20 250 50 0 empty empty empty 0 -10 0 12 #fcfcfc #000000 #000000;
#X obj 222 233 lfo 64;
#X obj 305 150 bng 20 250 50 0 empty empty empty 0 -10 0 12 #fcfcfc #000000 #000000;
#X obj 262 298 snare 3000 1000 150 20;
#X obj 613 589 pulse;
#X obj 618 547 bng 20 250 50 0 empty empty empty 0 -10 0 12 #fcfcfc #000000 #000000;
#X obj 15 454 mixer8;
#X obj 473 22 changer;
#X obj 407 22 r c16;
#X msg 186 192 vol \$1;
#X obj 186 154 r prechange;
#X obj 129 297 kick 500 20 5;
#X text 613 19 DSP on/off;
#X obj 589 18 tgl 19 0 empty empty empty 17 7 0 10 #dfdfdf #000000 #000000 0 1;
#X msg 589 45 \; pd dsp \$1;
#X obj 457 515 delayfilt;
#X obj 51 250 bng 20 250 50 0 empty empty empty 0 -10 0 12 #fcfcfc #000000 #000000;
#X obj 696 188 eucli 7 4;
#X obj 601 478 eucli 8 4;
#X obj 822 455 kick_del 150 30 50;
#X obj 770 409 bng 20 250 50 0 empty empty empty 0 -10 0 12 #fcfcfc #000000 #000000;
#X obj 164 244 bng 19 250 50 0 empty empty empty 0 -10 0 12 #fcfcfc #000000 #000000;
#X obj 451 132 play_chords2;
#X obj 675 111 chord_chooser;
#X obj 696 290 hihat 10000 10;
#X obj 615 712 delayfilt;
#X obj 704 712 delayfilt;
#X connect 2 0 1 0;
#X connect 2 1 1 1;
#X connect 3 0 40 1;
#X connect 6 0 5 0;
#X connect 7 0 2 1;
#X connect 8 0 3 0;
#X connect 10 0 7 0;
#X connect 11 0 1 0;
#X connect 11 0 31 0;
#X connect 11 1 1 1;
#X connect 12 0 13 0;
#X connect 12 0 11 0;
#X connect 12 0 35 0;
#X connect 12 1 27 0;
#X connect 14 0 12 0;
#X connect 15 0 16 0;
#X connect 15 0 19 0;
#X connect 15 1 2 0;
#X connect 17 0 4 0;
#X connect 18 0 15 0;
#X connect 19 0 1 0;
#X connect 19 0 31 0;
#X connect 19 1 1 1;
#X connect 20 0 41 0;
#X connect 20 0 1 0;
#X connect 20 1 42 0;
#X connect 20 1 1 1;
#X connect 21 0 20 0;
#X connect 24 0 9 0;
#X connect 25 0 27 1;
#X connect 26 0 25 0;
#X connect 27 0 1 0;
#X connect 27 1 1 1;
#X connect 29 0 30 0;
#X connect 31 0 1 0;
#X connect 31 0 1 1;
#X connect 32 0 11 0;
#X connect 33 0 40 0;
#X connect 34 0 20 0;
#X connect 35 0 1 0;
#X connect 35 1 1 1;
#X connect 36 0 35 0;
#X connect 37 0 27 0;
#X connect 38 0 1 0;
#X connect 38 0 1 1;
#X connect 40 0 1 0;
#X connect 40 1 1 1;
#X connect 41 0 1 0;
#X connect 42 0 1 1;
