#N canvas 30 13 691 554 12;
#X obj 234 50 bng 20 250 50 0 empty empty empty 0 -10 0 12 #fcfcfc #000000 #000000;
#X obj 197 133 until;
#X obj 197 157 f;
#X obj 231 156 + 1;
#X msg 197 108 16;
#X obj 234 81 t b 0;
#N canvas 0 50 450 250 (subpatch) 0;
#X array \$0-seq 16 float 3;
#A 0 1 0 0 0 0 0 0 0 1 0 0 0 1 0 0 0;
#X coords 0 1 16 -1 200 140 1;
#X restore 415 208 graph;
#X obj 197 393 tabwrite \$0-seq;
#X obj 197 188 t b f;
#N canvas 0 50 450 250 (subpatch) 0;
#X array \$0-probabilities 16 float 3;
#A 0 96.4285 19.2856 38.5712 12.1428 3.57149 2.14286 33.5712 6.42856 96.4286 0 22.1427 0 38.5712 0 29.9997 46.4282;
#X coords 0 100 16 0 200 140 1 0 0;
#X restore 413 23 graph;
#X text 415 164 0;
#X text 461 165 1;
#X text 511 165 2;
#X text 559 166 3;
#X obj 229 243 tabread \$0-probabilities;
#X obj 197 293 random 100;
#X obj 197 335 <;
#X obj 27 50 r s16;
#X obj 27 154 tabread \$0-seq;
#X obj 27 230 outlet;
#X obj 27 182 route 1;
#X obj 81 230 outlet;
#X obj 234 17 inlet;
#X obj 32 272 print;
#X obj 27 104 mod 16;
#X connect 0 0 5 0;
#X connect 1 0 2 0;
#X connect 2 0 3 0;
#X connect 2 0 8 0;
#X connect 3 0 2 1;
#X connect 4 0 1 0;
#X connect 5 0 4 0;
#X connect 5 1 2 1;
#X connect 8 0 15 0;
#X connect 8 1 7 1;
#X connect 8 1 14 0;
#X connect 14 0 16 1;
#X connect 15 0 16 0;
#X connect 16 0 7 0;
#X connect 17 0 24 0;
#X connect 18 0 20 0;
#X connect 20 0 19 0;
#X connect 20 0 23 0;
#X connect 20 1 21 0;
#X connect 22 0 0 0;
#X connect 24 0 18 0;
