#N canvas 411 480 450 437 12;
#X obj 30 24 r s16;
#X obj 138 107 f \$1;
#X obj 104 215 sin;
#X obj 104 136 /;
#X obj 138 75 loadbang;
#X obj 104 181 * 6.2832;
#X obj 29 87 f;
#X obj 79 88 + 1;
#X obj 28 53 bang;
#X obj 103 344 outlet;
#X obj 104 247 + 1;
#X obj 103 274 * 63.5;
#X obj 103 307 i;
#X connect 0 0 8 0;
#X connect 1 0 3 1;
#X connect 2 0 10 0;
#X connect 3 0 5 0;
#X connect 4 0 1 0;
#X connect 5 0 2 0;
#X connect 6 0 7 0;
#X connect 6 0 3 0;
#X connect 7 0 6 1;
#X connect 8 0 6 0;
#X connect 10 0 11 0;
#X connect 11 0 12 0;
#X connect 12 0 9 0;
