#N canvas 689 73 1147 909 12;
#X msg 110 231 bang;
#X msg 180 231 stop;
#X msg 242 231 reset;
#X msg 242 271 -1;
#X obj 40 281 /;
#X floatatom 40 320 5 0 0 0 - - - 0;
#X obj 31 16 inlet;
#X obj 81 16 inlet;
#X obj 131 16 inlet;
#X text 180 115 /;
#X obj 103 137 bng 20 250 50 0 empty empty empty 17 7 0 10 #5fb36b #000000 #000000;
#X obj 152 138 bng 20 250 50 0 empty empty empty 17 7 0 10 #ce3939 #000000 #000000;
#X obj 198 138 bng 20 250 50 0 empty empty empty 17 7 0 10 #e3ec51 #000000 #000000;
#X obj 40 181 t b f;
#X obj 110 281 metro 125;
#X obj 160 313 f;
#X obj 212 313 + 1;
#X floatatom 115 343 5 0 0 0 - - - 0;
#X obj 275 473 mod;
#X floatatom 275 543 5 0 0 0 - - - 0;
#X obj 400 290 /;
#X obj 400 210 t b f;
#X msg 400 250 16;
#X obj 381 330 *;
#X obj 368 173 t b f;
#X floatatom 381 384 5 0 0 0 - - - 0;
#X obj 133 710 outlet;
#X obj 233 700 outlet;
#X obj 343 710 outlet;
#X obj 463 710 outlet;
#X obj 23 710 outlet;
#X text 463 740 16th;
#X text 344 740 8th;
#X text 233 730 4th;
#X text 133 740 2nd;
#X text 23 740 1st;
#X obj 213 520 oneontwo;
#X obj 153 570 oneontwo;
#X obj 103 620 oneontwo;
#X obj 33 660 oneontwo;
#X obj 102 118 nbx 4 14 1 480 0 1 empty empty empty 0 -8 0 10 #fcfcfc #000000 #000000 120 256;
#X obj 153 119 nbx 2 14 1 16 0 1 empty empty empty 0 -8 0 10 #fcfcfc #000000 #000000 4 256;
#X obj 190 119 nbx 2 14 1 16 0 1 empty empty empty 0 -8 0 10 #fcfcfc #000000 #000000 4 256;
#X obj 525 712 s s16;
#X obj 395 713 s s8;
#X obj 285 703 s s4;
#X obj 185 713 s s2;
#X obj 75 713 s s1;
#X obj 160 380 oneonthree;
#X msg 40 241 5000;
#X msg 214 19 bang;
#X obj 31 57 t b b b;
#X connect 0 0 14 0;
#X connect 1 0 14 0;
#X connect 2 0 3 0;
#X connect 3 0 15 0;
#X connect 4 0 5 0;
#X connect 4 0 14 1;
#X connect 6 0 51 0;
#X connect 7 0 11 0;
#X connect 8 0 12 0;
#X connect 10 0 0 0;
#X connect 11 0 1 0;
#X connect 12 0 2 0;
#X connect 13 0 49 0;
#X connect 13 1 4 1;
#X connect 14 0 15 0;
#X connect 15 0 16 0;
#X connect 15 0 17 0;
#X connect 15 0 48 0;
#X connect 16 0 15 1;
#X connect 18 0 19 0;
#X connect 18 0 29 0;
#X connect 18 0 36 0;
#X connect 18 0 43 0;
#X connect 20 0 23 1;
#X connect 21 0 22 0;
#X connect 21 1 20 1;
#X connect 22 0 20 0;
#X connect 23 0 25 0;
#X connect 23 0 18 1;
#X connect 24 0 41 0;
#X connect 24 1 21 0;
#X connect 36 0 28 0;
#X connect 36 0 44 0;
#X connect 36 0 37 0;
#X connect 37 0 38 0;
#X connect 37 0 27 0;
#X connect 37 0 45 0;
#X connect 38 0 39 0;
#X connect 38 0 26 0;
#X connect 38 0 46 0;
#X connect 39 0 30 0;
#X connect 39 0 47 0;
#X connect 40 0 13 0;
#X connect 41 0 23 0;
#X connect 42 0 24 0;
#X connect 48 0 18 0;
#X connect 49 0 4 0;
#X connect 50 0 51 0;
#X connect 51 0 10 0;
#X connect 51 1 40 0;
#X connect 51 2 42 0;
#X coords 0 -1 1 1 120 60 1 100 100;
