#N canvas 378 25 1210 931 12;
#X msg 168 231 bang;
#X msg 238 231 stop;
#X msg 300 231 reset;
#X msg 300 271 -1;
#X obj 98 281 /;
#X floatatom 98 320 5 0 0 0 - - - 0;
#X obj 49 45 inlet;
#X obj 99 45 inlet;
#X obj 149 45 inlet;
#X text 180 115 /;
#X obj 103 137 bng 20 250 50 0 empty empty empty 17 7 0 10 #5fb36b #000000 #000000;
#X obj 126 137 bng 20 250 50 0 empty empty empty 17 7 0 10 #ce3939 #000000 #000000;
#X obj 150 137 bng 20 250 50 0 empty empty empty 17 7 0 10 #e3ec51 #000000 #000000;
#X obj 98 181 t b f;
#X msg 98 241 15000;
#X obj 168 281 metro 125;
#X obj 218 313 f;
#X obj 270 313 + 1;
#X floatatom 218 370 5 0 0 0 - - - 0;
#X obj 338 380 mod;
#X floatatom 338 450 5 0 0 0 - - - 0;
#X obj 458 290 /;
#X obj 458 210 t b f;
#X msg 458 250 16;
#X obj 439 330 *;
#X obj 426 173 t b f;
#X floatatom 438 390 5 0 0 0 - - - 0;
#X obj 196 617 outlet;
#X obj 296 607 outlet;
#X obj 406 617 outlet;
#X obj 526 617 outlet;
#X obj 86 617 outlet;
#X text 526 647 16th;
#X text 407 647 8th;
#X text 296 637 4th;
#X text 196 647 2nd;
#X text 61 647 1st;
#X obj 276 427 oneontwo;
#X obj 216 477 oneontwo;
#X obj 166 527 oneontwo;
#X obj 96 567 oneontwo;
#X obj 102 118 nbx 4 14 1 480 0 1 empty empty empty 0 -8 0 10 #fcfcfc #000000 #000000 120 256;
#X obj 153 119 nbx 2 14 1 16 0 1 empty empty empty 0 -8 0 10 #fcfcfc #000000 #000000 7 256;
#X obj 190 119 nbx 2 14 1 16 0 1 empty empty empty 0 -8 0 10 #fcfcfc #000000 #000000 8 256;
#X obj 588 619 s s16;
#X obj 458 620 s s8;
#X obj 348 610 s s4;
#X obj 248 620 s s2;
#X obj 138 620 s s1;
#X obj 485 390 s n16;
#X obj 407 220 r s1;
#X msg 407 255 bang;
#X obj 173 142 nbx 2 14 1 16 0 1 empty empty empty 0 -8 0 10 #fcfcfc #000000 #000000 4 256;
#X obj 87 395 *;
#X obj 87 368 t b f;
#X obj 87 422 mod;
#X obj 86 508 spigot;
#X obj 86 482 t b f;
#X obj 86 532 s cycle;
#X obj 203 142 bng 15 250 50 0 empty cycle empty 0 -10 0 12 #fcfcfc #000000 #000000;
#X obj 87 458 == 0;
#X obj 134 424 s cn16;
#X obj 134 456 s c16;
#X obj 6 209 expr 60 / $f1;
#X obj 6 258 s durtemps;
#X obj 219 45 loadbang;
#X obj 31 554 bng 19 250 50 0 empty empty empty 0 -10 0 12 #fcfcfc #000000 #000000;
#X connect 0 0 15 0;
#X connect 1 0 15 0;
#X connect 2 0 3 0;
#X connect 3 0 16 0;
#X connect 4 0 5 0;
#X connect 4 0 15 1;
#X connect 6 0 10 0;
#X connect 7 0 11 0;
#X connect 8 0 12 0;
#X connect 10 0 0 0;
#X connect 11 0 1 0;
#X connect 12 0 2 0;
#X connect 13 0 14 0;
#X connect 13 1 4 1;
#X connect 14 0 4 0;
#X connect 15 0 16 0;
#X connect 16 0 17 0;
#X connect 16 0 18 0;
#X connect 16 0 19 0;
#X connect 16 0 55 0;
#X connect 17 0 16 1;
#X connect 19 0 20 0;
#X connect 19 0 30 0;
#X connect 19 0 37 0;
#X connect 19 0 44 0;
#X connect 21 0 24 1;
#X connect 22 0 23 0;
#X connect 22 1 21 1;
#X connect 23 0 21 0;
#X connect 24 0 26 0;
#X connect 24 0 19 1;
#X connect 24 0 49 0;
#X connect 24 0 54 0;
#X connect 25 0 42 0;
#X connect 25 1 22 0;
#X connect 37 0 29 0;
#X connect 37 0 45 0;
#X connect 37 0 38 0;
#X connect 38 0 39 0;
#X connect 38 0 28 0;
#X connect 38 0 46 0;
#X connect 39 0 40 0;
#X connect 39 0 27 0;
#X connect 39 0 47 0;
#X connect 39 0 66 0;
#X connect 40 0 31 0;
#X connect 40 0 48 0;
#X connect 41 0 13 0;
#X connect 41 0 63 0;
#X connect 42 0 24 0;
#X connect 43 0 25 0;
#X connect 50 0 51 0;
#X connect 51 0 24 0;
#X connect 51 0 53 0;
#X connect 52 0 53 0;
#X connect 53 0 55 1;
#X connect 53 0 61 0;
#X connect 54 0 53 0;
#X connect 54 1 53 1;
#X connect 55 0 60 0;
#X connect 55 0 62 0;
#X connect 56 0 58 0;
#X connect 57 0 56 0;
#X connect 57 1 56 1;
#X connect 60 0 57 0;
#X connect 63 0 64 0;
#X connect 65 0 41 0;
#X connect 66 0 63 0;
#X coords 0 -1 1 1 120 60 1 100 100;
