#N canvas 763 359 422 417 12;
#X obj 49 162 dbtorms;
#X obj 50 218 line~;
#X obj 50 189 t f 20;
#X obj 47 79 / 127;
#X obj 47 105 * 50;
#X obj 48 135 + 50;
#X obj 32 25 inlet~;
#X obj 33 271 *~;
#X obj 106 105 vsl 30 170 0 127 0 0 empty empty empty 0 -9 0 12 #c6ffc7 #000000 #000000 0 1;
#X floatatom 101 300 5 0 127 0 - - - 0;
#X text 100 281 Pan;
#X obj 126 286 bng 10 250 50 0 empty empty empty 0 -10 0 12 #fcfcfc #000000 #000000;
#X floatatom 102 338 5 0 127 0 - - - 0;
#X text 100 319 Send1;
#X floatatom 102 376 5 0 127 0 - - - 0;
#X text 100 357 Send2;
#X obj 5 357 outlet~;
#X obj 32 314 pan;
#X obj 15 383 outlet~;
#X msg 171 267 64;
#X connect 0 0 2 0;
#X connect 1 0 7 1;
#X connect 2 0 1 0;
#X connect 2 1 1 1;
#X connect 3 0 4 0;
#X connect 4 0 5 0;
#X connect 5 0 0 0;
#X connect 6 0 7 0;
#X connect 7 0 17 0;
#X connect 8 0 3 0;
#X connect 11 0 19 0;
#X connect 17 0 16 0;
#X connect 17 1 18 0;
#X connect 19 0 9 0;
#X coords 0 -1 1 1 43 298 2 100 100;
