#N canvas 505 480 450 494 12;
#X obj 102 39 inlet~;
#X obj 154 40 inlet~;
#X obj 101 101 mixerchannel;
#X obj 144 101 mixerchannel;
#X obj 98 441 outlet~;
#X obj 156 441 outlet~;
#X obj 187 101 mixerchannel;
#X obj 230 101 mixerchannel;
#X obj 206 40 inlet~;
#X obj 258 41 inlet~;
#X connect 0 0 2 0;
#X connect 1 0 3 0;
#X connect 2 0 4 0;
#X connect 2 1 5 0;
#X connect 3 0 4 0;
#X connect 3 1 5 0;
#X connect 6 0 4 0;
#X connect 6 1 5 0;
#X connect 7 0 4 0;
#X connect 7 1 5 0;
#X connect 8 0 6 0;
#X connect 9 0 7 0;
#X coords 0 -1 1 1 200 300 1 100 100;
