#N canvas 959 505 450 300 12;
#X obj 130 36 inlet~;
#X obj 33 248 outlet~;
#X obj 78 100 == 0;
#X obj 134 149 *~;
#X obj 147 99 expr 1 - $f1;
#X obj 18 185 *~;
#X floatatom 128 237 5 0 0 0 - - - 0;
#X obj 27 37 inlet~;
#X obj 216 38 inlet;
#X connect 0 0 3 0;
#X connect 2 0 5 1;
#X connect 2 0 4 0;
#X connect 3 0 1 0;
#X connect 4 0 3 1;
#X connect 5 0 1 0;
#X connect 7 0 5 0;
#X connect 8 0 2 0;
#X connect 8 0 6 0;
