#N canvas 1419 361 450 300 12;
#X obj 59 66 /;
#X floatatom 116 131 5 0 0 0 - - - 0;
#X obj 56 146 * 127;
#X obj 55 190 outlet;
#X obj 34 21 r c16;
#X obj 94 21 r cn16;
#X connect 0 0 1 0;
#X connect 0 0 2 0;
#X connect 2 0 3 0;
#X connect 4 0 0 0;
#X connect 5 0 0 1;
