#N canvas 294 579 450 300 12;
#X obj 34 21 r s16;
#X obj 94 21 r n16;
#X obj 59 66 /;
#X floatatom 116 131 5 0 0 0 - - - 0;
#X obj 56 146 * 127;
#X obj 55 190 outlet;
#X connect 0 0 2 0;
#X connect 1 0 2 1;
#X connect 2 0 3 0;
#X connect 2 0 4 0;
#X connect 4 0 5 0;
