#N canvas 655 378 965 581 12;
#X floatatom 169 245 5 0 0 0 - - - 0;
#X obj 69 365 mixer;
#X obj 69 245 simple_voice;
#X floatatom 319 245 5 0 0 0 - - - 0;
#X obj 219 245 simple_voice;
#X floatatom 470 245 5 0 0 0 - - - 0;
#X obj 369 245 simple_voice;
#X obj 69 417 outlet~;
#X obj 90 11 r new_chord;
#X msg 90 63 0;
#X msg 126 63 1;
#X msg 166 63 2;
#X obj 90 34 t b b;
#X floatatom 615 245 5 0 0 0 - - - 0;
#X obj 515 245 simple_voice;
#X floatatom 766 245 5 0 0 0 - - - 0;
#X obj 665 245 simple_voice;
#X msg 202 63 3;
#X msg 245 63 4;
#X obj 90 97 tabread Chord_truenotes;
#X obj 147 125 tabread Chord_truenotes;
#X obj 194 157 tabread Chord_truenotes;
#X obj 348 102 tabread Chord_truenotes;
#X obj 398 164 tabread Chord_truenotes;
#X connect 1 0 7 0;
#X connect 2 0 1 0;
#X connect 4 0 1 1;
#X connect 6 0 1 2;
#X connect 8 0 12 0;
#X connect 9 0 19 0;
#X connect 10 0 20 0;
#X connect 11 0 21 0;
#X connect 12 0 9 0;
#X connect 12 1 10 0;
#X connect 12 1 11 0;
#X connect 12 1 17 0;
#X connect 12 1 18 0;
#X connect 14 0 1 1;
#X connect 16 0 1 2;
#X connect 17 0 22 0;
#X connect 18 0 23 0;
#X connect 19 0 2 0;
#X connect 19 0 0 0;
#X connect 20 0 4 0;
#X connect 20 0 3 0;
#X connect 21 0 6 0;
#X connect 21 0 5 0;
#X connect 22 0 14 0;
#X connect 22 0 13 0;
#X connect 23 0 16 0;
#X connect 23 0 15 0;
