#N canvas 501 391 450 300 12;
#X obj 142 33 inlet;
#X obj 83 33 inlet;
#X obj 55 174 spigot;
#X obj 160 177 spigot;
#X obj 95 139 == \$1;
#X obj 200 142 == \$2;
#X obj 106 250 outlet;
#X obj 193 34 inlet;
#X connect 0 0 2 0;
#X connect 1 0 4 0;
#X connect 1 0 5 0;
#X connect 2 0 6 0;
#X connect 3 0 6 0;
#X connect 4 0 2 1;
#X connect 5 0 3 1;
#X connect 7 0 3 0;
