#N canvas 764 -1004 921 895 12;
#X obj 16 522 line~;
#X obj 16 485 pack 0 5;
#X obj 13 572 inlet~;
#X obj 104 610 *~;
#X obj 105 562 vd~ \$0-delL;
#X obj 14 800 delwrite~ \$0-delL 2000;
#X obj 72 763 outlet~;
#N canvas 735 359 450 300 jail 0;
#X obj 10 33 hip~ 5;
#X obj 10 11 inlet~;
#X obj 10 77 outlet~;
#X obj 10 53 clip~ -1 1;
#X connect 0 0 3 0;
#X connect 1 0 0 0;
#X connect 3 0 2 0;
#X restore 14 766 pd jail;
#X obj 346 349 vsl 20 130 0 127 0 1 \$0-cutoff empty Cutoff 0 -9 0 12 #fcfcfc #000000 #000000 12900 1;
#X obj 399 350 vsl 20 130 0 127 0 1 \$0-Q empty Q 0 -9 0 12 #fcfcfc #000000 #000000 0 1;
#X obj 301 341 vsl 20 140 0 127 0 1 \$0-feedback empty Feedback 0 -9 0 12 #fcfcfc #000000 #000000 10800 1;
#X obj 224 524 r \$0-feedback;
#X obj 368 308 tgl 20 1 \$0-filteronoff empty empty 0 -10 0 12 #fcfcfc #000000 #000000 0 1;
#N canvas 1432 86 447 425 filter 0;
#X obj 114 40 inlet~;
#X obj 113 367 outlet~;
#X obj 271 104 mtof;
#X msg 271 136 \$1 100;
#X obj 271 175 line~;
#X obj 270 84 + 10;
#X obj 259 225 vcf~;
#X obj 114 316 multiplex2~;
#X obj 270 53 r \$0-cutoff;
#X obj 336 75 r \$0-Q;
#X floatatom 136 277 5 0 0 0 - - - 0;
#X obj 119 224 r \$0-filteronoff;
#X obj 335 120 / 127;
#X connect 0 0 6 0;
#X connect 0 0 7 0;
#X connect 2 0 3 0;
#X connect 3 0 4 0;
#X connect 4 0 6 1;
#X connect 5 0 2 0;
#X connect 6 0 7 1;
#X connect 7 0 1 0;
#X connect 8 0 5 0;
#X connect 9 0 12 0;
#X connect 11 0 10 0;
#X connect 11 0 7 2;
#X connect 12 0 6 2;
#X restore 105 650 pd filter \$0;
#X obj 435 350 vsl 20 130 0 127 0 1 \$0-volume empty Volume 0 -9 0 12 #fcfcfc #000000 #000000 12200 1;
#X obj 437 595 dbtorms;
#X obj 438 651 line~;
#X obj 438 622 t f 20;
#X obj 435 512 / 127;
#X obj 191 724 *~;
#X obj 490 69 r change;
#X obj 409 168 random 128;
#X obj 435 538 * 10;
#X obj 436 568 + 90;
#X obj 436 309 tgl 20 1 \$0-onoff empty empty 0 -10 0 12 #fcfcfc #000000 #000000 1 1;
#X obj 233 690 *~;
#X obj 298 606 r \$0-onoff;
#X obj 506 170 random 2;
#X obj 16 376 mtof;
#X obj 16 411 expr 1 / $f1;
#X obj 16 444 * 1000;
#X obj 206 603 + 0.3;
#X msg 16 340 24, f 5;
#X obj 72 117 r new_chord;
#X obj 72 328 + 24;
#X obj 146 168 bng 19 250 50 0 empty empty empty 0 -10 0 12 #fcfcfc #000000 #000000;
#X floatatom 34 289 5 0 0 0 - - - 0;
#X msg 72 152 0;
#X obj 211 62 r s8;
#X obj 212 103 bng 19 250 50 0 empty empty empty 0 -10 0 12 #fcfcfc #000000 #000000;
#X obj 121 280 f \$1;
#X obj 121 249 loadbang;
#X obj 123 308 * 12;
#X obj 209 175 + 0;
#X obj 72 226 tabread Chord_truenotes_unwrapped;
#X obj 211 140 random \$2;
#X obj 224 561 / 200;
#X connect 0 0 4 0;
#X connect 1 0 0 0;
#X connect 2 0 7 0;
#X connect 3 0 13 0;
#X connect 4 0 3 0;
#X connect 7 0 5 0;
#X connect 11 0 46 0;
#X connect 13 0 7 0;
#X connect 13 0 19 0;
#X connect 14 0 18 0;
#X connect 15 0 17 0;
#X connect 16 0 25 0;
#X connect 17 0 16 0;
#X connect 17 1 16 1;
#X connect 18 0 22 0;
#X connect 19 0 6 0;
#X connect 20 0 21 0;
#X connect 20 0 27 0;
#X connect 22 0 23 0;
#X connect 23 0 15 0;
#X connect 25 0 19 1;
#X connect 26 0 25 1;
#X connect 28 0 29 0;
#X connect 29 0 30 0;
#X connect 30 0 1 0;
#X connect 31 0 3 1;
#X connect 32 0 28 0;
#X connect 33 0 37 0;
#X connect 33 0 35 0;
#X connect 34 0 28 0;
#X connect 37 0 44 0;
#X connect 38 0 39 0;
#X connect 39 0 45 0;
#X connect 40 0 42 0;
#X connect 41 0 40 0;
#X connect 42 0 34 1;
#X connect 43 0 44 0;
#X connect 44 0 34 0;
#X connect 44 0 36 0;
#X connect 45 0 43 0;
#X connect 46 0 31 0;
