#N canvas 405 59 764 923 12;
#X obj 203 403 tonality_printer;
#X obj 203 301 tonality;
#X obj 82 280 degree_gen;
#X obj 26 49 bng 15 250 50 0 empty empty empty 17 7 0 10 #fcfcfc #000000 #000000;
#X obj 82 450 chord_shape;
#X obj 82 561 print;
#X obj 123 49 bng 15 250 50 0 empty empty empty 17 7 0 10 #fcfcfc #000000 #000000;
#X text 26 21 start;
#X text 123 21 stop;
#X obj 82 511 chord_notes;
#X obj 205 49 bng 15 250 50 0 empty empty empty 17 7 0 10 #fcfcfc #000000 #000000;
#X text 205 21 reset;
#X obj 26 88 t b b b b;
#X obj 82 350 t f f;
#X obj 153 561 s chords;
#X obj 433 503 play_chords;
#X obj 26 191 metronome2;
#X obj 473 345 arpeggio;
#X floatatom 513 385 5 0 0 0 - - - 0;
#X obj 393 435 phasor~;
#X obj 403 395 mtof;
#X obj 315 483 play_bass;
#X obj 473 305 bng 15 250 50 0 empty empty empty 17 7 0 10 #fcfcfc #000000 #000000;
#X text 499 302 Randomize arpeggio;
#N canvas 1223 393 537 404 rythm 0;
#X obj 160 60 soundfiler;
#N canvas 39 19 1280 658 (subpatch) 0;
#X array data 160069 float 2;
#X coords 0 1 160069 -1 200 140 1;
#X restore 315 121 graph;
#X obj 42 269 tabplay~ data;
#X obj 43 196 random;
#X msg 160 24 read -resize -raw 0 1 2 n e-core.bmp data;
#X msg 289 64 read -resize toutacoup.wav data;
#X msg 41 235 \$1 1000;
#X obj 47 129 r s16;
#X msg 47 164 bang;
#X obj 42 321 outlet~;
#X connect 0 0 3 1;
#X connect 2 0 9 0;
#X connect 3 0 6 0;
#X connect 4 0 0 0;
#X connect 5 0 0 0;
#X connect 6 0 2 0;
#X connect 7 0 8 0;
#X connect 8 0 3 0;
#X restore 545 484 pd rythm;
#X obj 339 550 else/mix4~;
#X obj 343 752 else/out~;
#X connect 1 0 0 0;
#X connect 1 0 9 2;
#X connect 1 1 0 1;
#X connect 1 1 4 1;
#X connect 2 0 13 0;
#X connect 3 0 12 0;
#X connect 3 0 17 0;
#X connect 4 0 9 0;
#X connect 6 0 16 1;
#X connect 9 0 5 0;
#X connect 9 0 14 0;
#X connect 10 0 16 2;
#X connect 12 0 16 0;
#X connect 12 1 2 2;
#X connect 12 2 2 1;
#X connect 12 3 1 0;
#X connect 13 0 4 0;
#X connect 13 1 9 1;
#X connect 15 0 25 2;
#X connect 16 2 2 0;
#X connect 17 0 18 0;
#X connect 17 0 20 0;
#X connect 19 0 25 1;
#X connect 20 0 19 0;
#X connect 21 0 25 0;
#X connect 22 0 17 0;
#X connect 24 0 25 3;
#X connect 25 0 26 0;
#X connect 25 1 26 1;
