#N canvas 1053 142 642 485 12;
#X obj 120 60 inlet;
#X obj 210 60 inlet;
#X obj 210 90 unpack f f f;
#X obj 190 340 pack f f f;
#X obj 190 430 outlet;
#X text 210 30 chord shape;
#X text 90 30 root note;
#X obj 390 60 inlet;
#X text 390 30 chord degree;
#X obj 60 290 expr $f1 + $f2 + $f3;
#X obj 261 289 expr $f1 + $f2 + $f3;
#X obj 460 290 expr $f1 + $f2 + $f3;
#X connect 0 0 9 1;
#X connect 0 0 10 1;
#X connect 0 0 11 1;
#X connect 1 0 2 0;
#X connect 2 0 9 0;
#X connect 2 1 10 0;
#X connect 2 2 11 0;
#X connect 3 0 4 0;
#X connect 7 0 9 2;
#X connect 7 0 10 2;
#X connect 7 0 11 2;
#X connect 9 0 3 0;
#X connect 10 0 3 1;
#X connect 11 0 3 2;
