#N canvas 1053 142 642 482 12;
#X obj 120 60 inlet;
#X obj 210 60 inlet;
#X obj 210 90 unpack f f f;
#X obj 190 150 +;
#X obj 190 210 pack f f f;
#X obj 190 300 outlet;
#X obj 230 150 +;
#X obj 270 150 +;
#X text 210 30 chord shape;
#X text 90 30 root note;
#X connect 0 0 3 1;
#X connect 0 0 6 1;
#X connect 0 0 7 1;
#X connect 1 0 2 0;
#X connect 2 0 3 0;
#X connect 2 1 6 0;
#X connect 2 2 7 0;
#X connect 3 0 4 0;
#X connect 4 0 5 0;
#X connect 6 0 4 1;
#X connect 7 0 4 2;
