#N canvas 258 490 733 469 12;
#X obj 130 330 metro 500;
#X msg 240 70 bang;
#X msg 310 70 stop;
#X obj 130 380 float;
#X obj 220 420 + 1;
#X obj 220 467 mod;
#X msg 271 420 24;
#X msg 400 70 reset;
#X msg 400 110 -1;
#X obj 130 190 /;
#X msg 200 150 120;
#X floatatom 130 230 5 0 0 0 - - -, f 5;
#X obj 240 30 inlet;
#X obj 310 30 inlet;
#X obj 400 30 inlet;
#X obj 220 530 outlet;
#X msg 130 150 60000;
#X obj 130 270 t b f;
#X obj 130 110 t b b;
#X connect 0 0 3 0;
#X connect 1 0 18 0;
#X connect 2 0 0 0;
#X connect 3 0 4 0;
#X connect 4 0 5 0;
#X connect 5 0 3 1;
#X connect 5 0 15 0;
#X connect 6 0 5 1;
#X connect 7 0 8 0;
#X connect 8 0 3 0;
#X connect 9 0 11 0;
#X connect 10 0 9 1;
#X connect 11 0 17 0;
#X connect 12 0 1 0;
#X connect 13 0 2 0;
#X connect 14 0 7 0;
#X connect 16 0 9 0;
#X connect 17 0 0 0;
#X connect 17 1 0 1;
#X connect 18 0 16 0;
#X connect 18 1 10 0;
