#N canvas 208 300 567 509 12;
#X obj 170 320 dac~;
#X obj 169 110 *~;
#X obj 239 110 *~;
#X obj 310 110 *~;
#X obj 170 230 rev1~;
#X msg 340 150 1;
#X msg 380 150 2;
#X msg 390 50 0.05;
#X obj 169 10 inlet~;
#X obj 239 10 inlet~;
#X obj 310 10 inlet~;
#X connect 1 0 4 0;
#X connect 2 0 4 0;
#X connect 3 0 4 0;
#X connect 4 0 0 0;
#X connect 4 0 0 1;
#X connect 5 0 4 1;
#X connect 6 0 4 2;
#X connect 7 0 1 1;
#X connect 7 0 2 1;
#X connect 7 0 3 1;
#X connect 8 0 1 0;
#X connect 9 0 2 0;
#X connect 10 0 3 0;
