#N canvas 208 303 567 512 12;
#X obj 170 320 dac~;
#X msg 340 150 1;
#X msg 380 150 2;
#X msg 390 50 0.05;
#X obj 169 10 inlet~;
#X obj 239 10 inlet~;
#X obj 310 10 inlet~;
#X obj 170 230 rev1~ 1 2;
#X obj 169 110 *~ 0.5;
#X obj 239 110 *~ 0.5;
#X obj 310 110 *~ 0.5;
#X obj 410 10 loadbang;
#X connect 1 0 7 1;
#X connect 2 0 7 2;
#X connect 3 0 8 1;
#X connect 3 0 9 1;
#X connect 3 0 10 1;
#X connect 4 0 8 0;
#X connect 5 0 9 0;
#X connect 6 0 10 0;
#X connect 7 0 0 0;
#X connect 7 0 0 1;
#X connect 8 0 7 0;
#X connect 9 0 7 0;
#X connect 10 0 7 0;
#X connect 11 0 3 0;
#X connect 11 0 1 0;
