#N canvas 162 425 450 604 12;
#X obj 70 20 r chords;
#X obj 164 76 unpack f f f;
#X floatatom 170 140 5 0 0 0 - - -, f 5;
#X floatatom 270 140 5 0 0 0 - - -, f 5;
#X floatatom 370 140 5 0 0 0 - - -, f 5;
#X obj 130 140 + 60;
#X obj 220 140 + 60;
#X obj 130 170 mtof;
#X obj 220 170 mtof;
#X obj 320 178 mtof;
#X obj 266 400 dac~;
#X obj 136 350 *~;
#X floatatom 60 210 5 0 0 0 - - -, f 5;
#X obj 130 210 osc~;
#X obj 206 350 *~;
#X obj 220 210 osc~;
#X obj 296 340 *~;
#X obj 320 218 osc~;
#X obj 320 138 + 60;
#X floatatom 170 210 5 0 0 0 - - -, f 5;
#X floatatom 270 220 5 0 0 0 - - -, f 5;
#X obj 120 470 rev1~;
#X msg 20 400 1;
#X msg 60 400 2;
#X msg 76 270 0.05;
#X connect 0 0 1 0;
#X connect 1 0 2 0;
#X connect 1 0 5 0;
#X connect 1 1 3 0;
#X connect 1 1 6 0;
#X connect 1 2 4 0;
#X connect 1 2 18 0;
#X connect 5 0 7 0;
#X connect 6 0 8 0;
#X connect 7 0 12 0;
#X connect 7 0 13 0;
#X connect 8 0 15 0;
#X connect 8 0 19 0;
#X connect 9 0 17 0;
#X connect 9 0 20 0;
#X connect 11 0 21 0;
#X connect 13 0 11 0;
#X connect 14 0 21 0;
#X connect 15 0 14 0;
#X connect 16 0 21 0;
#X connect 17 0 16 0;
#X connect 18 0 9 0;
#X connect 21 0 10 0;
#X connect 21 0 10 1;
#X connect 22 0 21 1;
#X connect 23 0 21 2;
#X connect 24 0 11 1;
#X connect 24 0 14 1;
#X connect 24 0 16 1;
