#N canvas 627 471 450 535 12;
#X obj 42 14 r chords;
#X obj 136 70 unpack f f f;
#X floatatom 142 134 5 0 0 0 - - -, f 5;
#X floatatom 242 134 5 0 0 0 - - -, f 5;
#X floatatom 342 134 5 0 0 0 - - -, f 5;
#X obj 192 134 + 60;
#X obj 102 164 mtof;
#X obj 192 164 mtof;
#X obj 292 172 mtof;
#X obj 292 132 + 60;
#X obj 130 280 phasor~;
#X obj 150 460 dac~;
#X obj 160 420 *~;
#X msg 100 340 0.1;
#X obj 102 134 + 24;
#X connect 0 0 1 0;
#X connect 1 0 2 0;
#X connect 1 0 14 0;
#X connect 1 1 3 0;
#X connect 1 1 5 0;
#X connect 1 2 4 0;
#X connect 1 2 9 0;
#X connect 5 0 7 0;
#X connect 6 0 10 0;
#X connect 9 0 8 0;
#X connect 10 0 12 0;
#X connect 12 0 11 0;
#X connect 12 0 11 1;
#X connect 13 0 12 1;
#X connect 14 0 6 0;
