#N canvas 713 128 1026 861 12;
#X obj 50 260 tonality_printer;
#X obj 106 188 tonality;
#X obj 233 190 degree_gen;
#X obj 106 58 bng 15 250 50 0 empty empty empty 17 7 0 10 #fcfcfc #000000
#000000;
#X obj 266 118 metronome;
#X obj 313 300 chord_shape;
#X obj 159 400 print;
#X obj 296 58 bng 15 250 50 0 empty empty empty 17 7 0 10 #fcfcfc #000000
#000000;
#X text 106 30 start;
#X text 296 30 stop;
#X obj 159 350 chord_notes;
#X obj 230 400 s chords;
#X connect 1 0 0 0;
#X connect 1 0 10 0;
#X connect 1 1 0 1;
#X connect 1 1 5 1;
#X connect 2 0 5 0;
#X connect 2 0 10 2;
#X connect 3 0 1 0;
#X connect 3 0 2 0;
#X connect 3 0 2 2;
#X connect 3 0 4 0;
#X connect 4 0 2 1;
#X connect 5 0 10 1;
#X connect 7 0 4 1;
#X connect 10 0 6 0;
#X connect 10 0 11 0;
