#N canvas 254 25 1538 991 12;
#X obj 790 90 inlet;
#X obj 897 90 inlet;
#X obj 250 400 select 0 1 2 3 4 5 6 7 8 9 10 11;
#X msg 87 478 Db;
#X msg 39 478 C;
#X msg 137 478 D;
#X msg 197 478 Eb;
#X msg 247 478 E;
#X msg 295 478 F;
#X msg 345 478 F#;
#X msg 405 478 G;
#X msg 467 478 Ab;
#X msg 527 478 A;
#X msg 597 478 Bb;
#X msg 657 478 B;
#X obj 897 131 select 0 1;
#X obj 355 608 symbol;
#X obj 560 750 print;
#X obj 930 400 select 0 1 2 3 4 5 6 7 8 9 10 11;
#X msg 1207 478 a;
#X msg 1337 478 b;
#X msg 1085 478 g;
#X msg 975 478 f;
#X msg 927 478 e;
#X msg 817 478 d;
#X msg 719 478 c;
#X msg 767 478 c#;
#X msg 877 478 eb;
#X msg 1027 478 f#;
#X msg 1140 478 g#;
#X msg 1277 478 bb;
#X obj 771 215 int;
#X obj 930 214 int;
#X obj 739 750 outlet;
#X obj 950 608 symbol;
#X text 680 90 root_note;
#X text 970 90 mode;
#X connect 0 0 31 1;
#X connect 0 0 32 1;
#X connect 1 0 15 0;
#X connect 2 0 4 0;
#X connect 2 1 3 0;
#X connect 2 2 5 0;
#X connect 2 3 6 0;
#X connect 2 4 7 0;
#X connect 2 5 8 0;
#X connect 2 6 9 0;
#X connect 2 7 10 0;
#X connect 2 8 11 0;
#X connect 2 9 12 0;
#X connect 2 10 13 0;
#X connect 2 11 14 0;
#X connect 3 0 16 0;
#X connect 4 0 16 0;
#X connect 5 0 16 0;
#X connect 6 0 16 0;
#X connect 7 0 16 0;
#X connect 8 0 16 0;
#X connect 9 0 16 0;
#X connect 10 0 16 0;
#X connect 11 0 16 0;
#X connect 12 0 16 0;
#X connect 13 0 16 0;
#X connect 14 0 16 0;
#X connect 15 0 31 0;
#X connect 15 1 32 0;
#X connect 16 0 17 0;
#X connect 16 0 33 0;
#X connect 18 0 25 0;
#X connect 18 1 26 0;
#X connect 18 2 24 0;
#X connect 18 3 27 0;
#X connect 18 4 23 0;
#X connect 18 5 22 0;
#X connect 18 6 28 0;
#X connect 18 7 21 0;
#X connect 18 8 29 0;
#X connect 18 9 19 0;
#X connect 18 10 30 0;
#X connect 18 11 20 0;
#X connect 19 0 34 0;
#X connect 20 0 34 0;
#X connect 21 0 34 0;
#X connect 22 0 34 0;
#X connect 23 0 34 0;
#X connect 24 0 34 0;
#X connect 25 0 34 0;
#X connect 26 0 34 0;
#X connect 27 0 34 0;
#X connect 28 0 34 0;
#X connect 29 0 34 0;
#X connect 30 0 34 0;
#X connect 31 0 2 0;
#X connect 32 0 18 0;
#X connect 34 0 33 0;
#X connect 34 0 17 0;
