#N canvas 482 218 788 608 12;
#X obj 184 97 bng 20 250 50 0 empty empty empty 0 -10 0 12 #fcfcfc #000000 #000000;
#X obj 147 180 until;
#X obj 147 204 f;
#X obj 181 203 + 1;
#X msg 147 155 16;
#X obj 184 128 t b 0;
#N canvas 0 50 450 250 (subpatch) 0;
#X array \$0-seq 16 float 3;
#A 0 114.3 25.4 50.8 0 0 0 0 0 114.3 25.4 0 0 0 0 0 0;
#X coords 0 127 16 0 200 140 1 0 0;
#X restore 546 38 graph;
#X obj 147 515 tabwrite \$0-seq;
#X obj 147 235 t b f;
#N canvas 0 50 450 250 (subpatch) 0;
#X array \$0-probabilities 16 float 3;
#A 0 90 20 40 15 5 15 30 20 90 20 50 30 30 5 20 30;
#X coords 0 100 16 0 200 140 1 0 0;
#X restore 545 214 graph;
#X text 514 355 0;
#X text 560 356 1;
#X text 643 356 2;
#X text 691 357 3;
#X obj 179 290 tabread \$0-probabilities;
#X obj 147 323 random 100;
#X obj 147 353 <;
#X obj 27 154 tabread \$0-seq;
#X obj 24 281 outlet;
#X obj 80 283 outlet;
#X obj 184 64 inlet;
#X obj 27 104 mod 16;
#X obj 321 123 symbol \$1;
#X obj 272 20 loadbang;
#X obj 366 18 bng 20 250 50 0 empty empty empty 0 -10 0 12 #fcfcfc #000000 #000000;
#X obj 268 122 f \$0;
#X obj 268 154 pack f s;
#X obj 268 89 t b b b;
#X obj 179 395 * 1.27;
#X obj 146 450 *;
#X obj 27 182 route 0;
#X obj 74 220 f 127;
#X obj 114 36 r change;
#X msg 268 188 \; \$1-probabilities read patterns/\$2.txt;
#X obj 27 50 r mi16;
#X connect 0 0 5 0 empty;
#X connect 1 0 2 0 empty;
#X connect 2 0 3 0 empty;
#X connect 2 0 8 0 empty;
#X connect 3 0 2 1 empty;
#X connect 4 0 1 0 empty;
#X connect 5 0 4 0 empty;
#X connect 5 1 2 1 empty;
#X connect 8 0 15 0 empty;
#X connect 8 1 7 1 empty;
#X connect 8 1 14 0 empty;
#X connect 14 0 16 1 empty;
#X connect 14 0 28 0 empty;
#X connect 15 0 16 0 empty;
#X connect 16 0 29 0 empty;
#X connect 17 0 30 0 empty;
#X connect 20 0 0 0 empty;
#X connect 21 0 17 0 empty;
#X connect 22 0 26 1 empty;
#X connect 23 0 27 0 empty;
#X connect 24 0 27 0 empty;
#X connect 25 0 26 0 empty;
#X connect 26 0 33 0 empty;
#X connect 27 0 0 0 empty;
#X connect 27 1 25 0 empty;
#X connect 27 2 22 0 empty;
#X connect 28 0 29 1 empty;
#X connect 29 0 7 0 empty;
#X connect 30 0 31 0 empty;
#X connect 30 1 18 0 empty;
#X connect 31 0 19 0 empty;
#X connect 32 0 0 0 empty;
#X connect 34 0 21 0 empty;
