#N canvas 1022 133 624 754 12;
#X obj 210 52 r cycle;
#X obj 155 659 s prechange;
#X obj 284 701 s change;
#X floatatom 266 234 11 0 0 0 - - - 24;
#X obj 210 167 random 2;
#X obj 154 329 *;
#X floatatom 337 175 5 0 0 0 - - - 0;
#X obj 404 129 - 1;
#X obj 178 272 == 0;
#X floatatom 196 330 5 0 0 0 - - - 0;
#X obj 337 124 f 16;
#X obj 265 303 t b f;
#X obj 263 359 spigot;
#X obj 259 391 bng 20 250 50 0 empty empty empty 0 -10 0 12 #fcfcfc #000000 #000000;
#X obj 207 95 t b b b;
#X msg 329 421 1;
#X obj 311 473 f 0;
#X floatatom 402 526 5 0 0 0 - - - 0;
#X msg 402 645 0;
#X obj 401 588 t b f;
#X obj 401 617 spigot;
#X obj 159 135 bng 20 250 50 0 empty empty empty 0 -10 0 12 #fcfcfc #000000 #000000;
#X obj 402 554 == 1;
#X obj 262 513 t b f;
#X obj 262 542 spigot;
#X msg 335 91 8;
#X obj 116 133 tgl 20 0 empty empty empty 0 -10 0 12 #fcfcfc #000000 #000000 0 1;
#X obj 28 205 mg-onecycleramp;
#X obj 215 601 inlet;
#X connect 0 0 14 0 empty;
#X connect 4 0 3 0 empty;
#X connect 4 0 8 0 empty;
#X connect 5 0 1 0 empty;
#X connect 7 0 10 1 empty;
#X connect 8 0 9 0 empty;
#X connect 8 0 5 1 empty;
#X connect 8 0 11 0 empty;
#X connect 10 0 7 0 empty;
#X connect 10 0 6 0 empty;
#X connect 10 0 4 1 empty;
#X connect 11 0 12 0 empty;
#X connect 11 1 12 1 empty;
#X connect 12 0 13 0 empty;
#X connect 12 0 25 0 empty;
#X connect 12 0 15 0 empty;
#X connect 14 0 4 0 empty;
#X connect 14 1 10 0 empty;
#X connect 14 2 16 0 empty;
#X connect 15 0 16 1 empty;
#X connect 15 0 26 0 empty;
#X connect 16 0 17 0 empty;
#X connect 16 0 23 0 empty;
#X connect 17 0 22 0 empty;
#X connect 18 0 16 1 empty;
#X connect 18 0 26 0 empty;
#X connect 19 0 20 0 empty;
#X connect 19 1 20 1 empty;
#X connect 20 0 18 0 empty;
#X connect 22 0 19 0 empty;
#X connect 23 0 24 0 empty;
#X connect 23 1 24 1 empty;
#X connect 24 0 21 0 empty;
#X connect 24 0 2 0 empty;
#X connect 25 0 10 0 empty;
#X connect 27 0 5 0 empty;
#X connect 28 0 2 0 empty;
#X coords 0 -1 1 1 85 60 1 100 100;
