#N canvas 827 239 755 484 12;
#X obj 21 83 value cn16;
#X obj 21 135 print;
#X obj 21 20 bng 25 250 50 0 empty empty empty 17 7 0 10 #e4e4e4 #4d4d4d #4d4d4d;
#X text 223 19 Il faut choisir les points d'inflexion;
#N canvas 0 50 450 250 (subpatch) 0;
#X array ipoints 16 float 2;
#X coords 0 3 16 -1 100 50 1 0 0;
#X restore 100 150 graph;
#X obj 271 337 mgl-setinfpoints ipoints;
#X obj 271 77 bng 25 250 50 0 empty empty empty 17 7 0 10 #e4e4e4 #4d4d4d #4d4d4d;
#X obj 271 292 f 16;
#X obj 296 217 value cnm;
#X obj 320 267 array size;
#X obj 271 131 t b b b;
#X msg 381 187 ipoints;
#X obj 387 239 symbol;
#X obj 309 75 loadbang;
#X obj 394 84 r change;
#X connect 0 0 1 0 empty;
#X connect 2 0 0 0 empty;
#X connect 6 0 10 0 empty;
#X connect 7 0 5 0 empty;
#X connect 8 0 7 1 empty;
#X connect 8 0 9 0 empty;
#X connect 10 0 7 0 empty;
#X connect 10 1 8 0 empty;
#X connect 10 2 11 0 empty;
#X connect 11 0 12 0 empty;
#X connect 12 0 9 1 empty;
#X connect 13 0 10 0 empty;
#X connect 14 0 10 0 empty;
#X coords 0 -1 1 1 100 100 1 100 100;
