#N canvas 990 52 812 922 12;
#X obj 23 175 t f f;
#X obj 23 215 + 0;
#X obj 25 250 *;
#X obj 25 281 % 16;
#X obj 25 307 <;
#X obj 25 333 select 1;
#X obj 186 104 bng 10 250 50 0 empty empty empty 0 -10 0 12 #0f4710 #00ff04 #000000;
#X obj 186 119 bng 10 250 50 0 empty empty empty 0 -10 0 12 #551312 #ff0400 #000000;
#X obj 25 141 % 16;
#X obj 256 141 outlet;
#X obj 307 196 outlet;
#X obj 103 134 nbx 3 18 1 32 0 1 empty empty empty 0 -10 0 12 #fcfcfc #000000 #000000 0 256;
#X obj 151 134 nbx 3 18 0 32 0 1 empty empty empty 0 -10 0 12 #fcfcfc #000000 #000000 0 256;
#X obj 128 62 f \$1;
#X obj 169 61 f \$2;
#X obj 153 8 loadbang;
#X obj 414 125 - 2;
#X obj 388 168 +;
#X obj 414 48 r change;
#X obj 414 85 random 7;
#X obj 25 6 r mi16;
#X obj 50 67 value mn16;
#X obj 25 39 t f b;
#X connect 0 0 1 0;
#X connect 1 0 2 0;
#X connect 2 0 3 0;
#X connect 3 0 4 0;
#X connect 4 0 5 0;
#X connect 5 0 6 0;
#X connect 5 1 7 0;
#X connect 6 0 9 0;
#X connect 7 0 10 0;
#X connect 8 0 0 0;
#X connect 11 0 2 1;
#X connect 11 0 4 1;
#X connect 12 0 1 1;
#X connect 13 0 11 0;
#X connect 13 0 17 1;
#X connect 14 0 12 0;
#X connect 15 0 13 0;
#X connect 15 0 14 0;
#X connect 16 0 17 0;
#X connect 17 0 11 0;
#X connect 18 0 19 0;
#X connect 19 0 16 0;
#X connect 19 0 12 0;
#X connect 20 0 22 0;
#X connect 21 0 8 1;
#X connect 22 0 8 0;
#X connect 22 1 21 0;
#X coords 0 -1 1 1 100 60 1 100 100;
