#N canvas 1238 242 656 700 12;
#X obj 26 80 inlet;
#X obj 325 20 inlet;
#X msg 26 119 bang;
#X obj 51 235 random 10;
#X obj 50 266 / 20;
#X obj 27 202 t f b;
#X obj 48 298 + 0.7;
#X obj 27 331 *;
#X obj 239 347 noise~;
#X obj 91 541 *~;
#X obj 25 429 vline~;
#N canvas 0 0 1920 1018 (subpatch) 0;
#X array \$0-hihat 4410 float 2;
#X coords 0 -1 4410 1 95 40 1 0 0;
#X restore 101 143 graph;
#X obj 105 182 hsl 50 15 50 100 0 1 empty empty empty -2 -10 0 12 #c6ffc7 #000000 #000000 4900 1;
#X obj 160 182 hsl 35 15 0 100 0 1 empty empty empty -2 -10 0 12 #ffe3c6 #000000 #000000 1972 1;
#X obj 27 171 f 1;
#X obj 372 297 f \$1;
#X obj 281 214 f \$2;
#X obj 340 171 loadbang;
#X obj 327 80 route hpf dur vol pan;
#X obj 239 378 hip~ 15000;
#X obj 243 412 hip~ 15000;
#X obj 25 361 pack \$1 \$2;
#X msg 25 394 \$1 \, 0 \$2 1;
#X obj 326 439 loadbang;
#X obj 326 479 metro 100;
#X obj 155 431 dbtorms;
#X obj 157 518 line~;
#X obj 158 472 t f 20;
#X obj 90 592 *~;
#X obj 267 578 tabwrite~ \$0-hihat;
#X obj 223 24 r change;
#X obj 222 81 random 127;
#X obj 455 142 random 40;
#X obj 87 626 mg-pan;
#X obj 87 698 throw~ L;
#X obj 163 698 throw~ R;
#X connect 0 0 2 0 empty;
#X connect 1 0 18 0 empty;
#X connect 2 0 14 0 empty;
#X connect 3 0 4 0 empty;
#X connect 4 0 6 0 empty;
#X connect 5 0 7 0 empty;
#X connect 5 1 3 0 empty;
#X connect 6 0 7 1 empty;
#X connect 7 0 21 0 empty;
#X connect 8 0 19 0 empty;
#X connect 9 0 28 0 empty;
#X connect 9 0 29 0 empty;
#X connect 10 0 9 0 empty;
#X connect 12 0 25 0 empty;
#X connect 13 0 33 1 empty;
#X connect 14 0 5 0 empty;
#X connect 15 0 19 1 empty;
#X connect 15 0 20 1 empty;
#X connect 16 0 21 1 empty;
#X connect 17 0 15 0 empty;
#X connect 17 0 16 0 empty;
#X connect 18 0 19 1 empty;
#X connect 18 0 20 1 empty;
#X connect 18 1 21 1 empty;
#X connect 18 2 12 0 empty;
#X connect 18 3 13 0 empty;
#X connect 19 0 20 0 empty;
#X connect 20 0 9 1 empty;
#X connect 21 0 22 0 empty;
#X connect 22 0 10 0 empty;
#X connect 23 0 24 0 empty;
#X connect 24 0 29 0 empty;
#X connect 25 0 27 0 empty;
#X connect 26 0 28 1 empty;
#X connect 27 0 26 0 empty;
#X connect 27 1 26 1 empty;
#X connect 28 0 33 0 empty;
#X connect 30 0 31 0 empty;
#X connect 30 0 32 0 empty;
#X connect 31 0 13 0 empty;
#X connect 32 0 21 1 empty;
#X connect 33 0 34 0 empty;
#X connect 33 1 35 0 empty;
#X coords 0 -1 1 1 100 100 1 100 100;
