#N canvas 528 -915 585 660 12;
#X obj 37 156 inlet;
#X msg 37 200 bang;
#X obj 37 347 vline~;
#X obj 36 373 osc~;
#X obj 35 420 *~;
#X obj 157 322 vline~;
#X obj 157 237 f \$3;
#X msg 157 293 1 1 0 \, 0 \$1 1;
#N canvas 0 0 1920 1018 (subpatch) 0;
#X array \$0-kick 4410 float 2;
#X coords 0 -1 4410 1 95 40 1 0 0;
#X restore 102 138 graph;
#X obj 92 457 tabwrite~ \$0-kick;
#X obj 91 204 bng 20 250 50 0 empty empty empty 0 -10 0 12 #fcfcfc #000000 #000000;
#X obj 137 368 loadbang;
#X obj 137 408 metro 100;
#X obj 97 362 *~;
#X obj 104 179 hsl 50 15 0 127 0 1 empty empty empty -2 -10 0 12 #c6ffc7 #000000 #000000 3952 1;
#X floatatom 252 248 5 0 0 0 - - - 0;
#X obj 160 180 hsl 35 15 0 127 0 1 empty empty empty -2 -10 0 12 #ffe3c6 #000000 #000000 1600 1;
#X obj 326 271 dbtorms;
#X obj 327 327 line~;
#X obj -75 140 loadbang;
#X obj 256 63 inlet;
#X obj -75 194 f \$1;
#X obj -36 194 f \$2;
#X obj 1 194 f \$3;
#X obj 256 103 route f1 f2 dur vol pan;
#X obj -75 163 t b b b;
#X obj 40 259 pack 0 \$1 \$2 \$3;
#X msg 37 300 \$2 \, \$3 \$4 0;
#X obj 327 298 t f 20;
#X obj 324 188 / 127;
#X obj 324 214 * 50;
#X obj 325 244 + 50;
#X obj 41 544 mg-pan;
#X obj 57 490 mg-smalldel 2;
#X obj 41 631 throw~ L;
#X obj 72 598 throw~ R;
#X connect 0 0 1 0 empty;
#X connect 0 0 10 0 empty;
#X connect 1 0 6 0 empty;
#X connect 1 0 26 0 empty;
#X connect 2 0 3 0 empty;
#X connect 3 0 4 0 empty;
#X connect 4 0 9 0 empty;
#X connect 4 0 32 0 empty;
#X connect 4 0 33 0 empty;
#X connect 5 0 13 0 empty;
#X connect 6 0 7 0 empty;
#X connect 7 0 5 0 empty;
#X connect 11 0 12 0 empty;
#X connect 12 0 9 0 empty;
#X connect 13 0 4 1 empty;
#X connect 14 0 15 0 empty;
#X connect 14 0 29 0 empty;
#X connect 16 0 32 1 empty;
#X connect 17 0 28 0 empty;
#X connect 18 0 13 1 empty;
#X connect 19 0 25 0 empty;
#X connect 20 0 24 0 empty;
#X connect 21 0 26 1 empty;
#X connect 22 0 26 2 empty;
#X connect 23 0 26 3 empty;
#X connect 24 0 26 1 empty;
#X connect 24 1 26 2 empty;
#X connect 24 2 6 1 empty;
#X connect 24 2 26 3 empty;
#X connect 24 3 14 0 empty;
#X connect 24 4 16 0 empty;
#X connect 25 0 21 0 empty;
#X connect 25 1 22 0 empty;
#X connect 25 2 23 0 empty;
#X connect 26 0 27 0 empty;
#X connect 27 0 2 0 empty;
#X connect 28 0 18 0 empty;
#X connect 28 1 18 1 empty;
#X connect 29 0 30 0 empty;
#X connect 30 0 31 0 empty;
#X connect 31 0 17 0 empty;
#X connect 32 0 34 0 empty;
#X connect 32 1 35 0 empty;
#X connect 33 0 32 0 empty;
#X coords 0 -1 1 1 100 100 1 100 100;
