#N canvas 555 41 1210 931 12;
#X msg 168 231 bang;
#X msg 238 231 stop;
#X msg 300 231 reset;
#X msg 300 271 -1;
#X obj 98 281 /;
#X floatatom 98 320 5 0 0 0 - - - 0;
#X obj 49 45 inlet;
#X obj 99 45 inlet;
#X obj 149 45 inlet;
#X text 180 115 /;
#X obj 103 137 bng 20 250 50 0 empty empty empty 17 7 0 10 #5fb36b #000000 #000000;
#X obj 126 137 bng 20 250 50 0 empty empty empty 17 7 0 10 #ce3939 #000000 #000000;
#X obj 150 137 bng 20 250 50 0 empty empty empty 17 7 0 10 #e3ec51 #000000 #000000;
#X obj 98 181 t b f;
#X msg 98 241 15000;
#X obj 168 281 metro 125;
#X obj 218 313 f;
#X obj 270 313 + 1;
#X floatatom 218 370 8 0 0 0 - - - 12;
#X obj 338 380 mod;
#X floatatom 338 460 6 0 0 0 - - - 10;
#X obj 458 290 /;
#X obj 458 210 t b f;
#X msg 458 250 16;
#X obj 439 330 *;
#X obj 426 173 t b f;
#X floatatom 597 413 5 0 0 0 - - - 0;
#X obj 196 617 outlet;
#X obj 296 607 outlet;
#X obj 406 617 outlet;
#X obj 526 617 outlet;
#X obj 86 617 outlet;
#X text 526 647 16th;
#X text 407 647 8th;
#X text 296 637 4th;
#X text 196 647 2nd;
#X text 61 647 1st;
#X obj 102 118 nbx 4 14 1 480 0 1 empty empty empty 0 -8 0 10 #fcfcfc #000000 #000000 120 256;
#X obj 153 119 nbx 2 14 1 16 0 1 empty empty empty 0 -8 0 10 #fcfcfc #000000 #000000 7 256;
#X obj 190 119 nbx 2 14 1 16 0 1 empty empty empty 0 -8 0 10 #fcfcfc #000000 #000000 8 256;
#X msg 407 255 bang;
#X obj 172 142 nbx 2 14 1 16 0 1 cnm empty empty 0 -8 0 10 #fcfcfc #000000 #000000 8 256;
#X obj 87 395 *;
#X obj 87 368 t b f;
#X obj 87 422 mod;
#X obj 86 508 spigot;
#X obj 86 482 t b f;
#X obj 86 539 s cycle;
#X obj 203 142 bng 15 250 50 0 empty cycle empty 0 -10 0 12 #fcfcfc #000000 #000000;
#X obj 87 458 == 0;
#X obj 6 209 expr 60 / $f1;
#X obj 219 45 loadbang;
#X obj 32 566 bng 19 250 50 0 empty empty empty 0 -10 0 12 #fcfcfc #000000 #000000;
#X obj 588 619 s mi16;
#X obj 458 620 s mi8;
#X obj 348 610 s mi4;
#X obj 248 620 s mi2;
#X obj 138 620 s mi1;
#X obj 134 456 s ci16;
#X obj 597 380 value mn16;
#X obj 134 424 value cn16;
#X obj 3 260 value durtemps;
#X obj 407 220 r mi1;
#X obj 276 427 mg-oneontwo;
#X obj 216 477 mg-oneontwo;
#X obj 166 527 mg-oneontwo;
#X obj 96 567 mg-oneontwo;
#X obj 256 173 value cnm;
#X obj 443 397 -;
#X floatatom 443 436 7 0 0 0 empty - - 16;
#X obj 617 539 mod;
#X obj 509 501 /;
#X floatatom 548 539 8 0 0 0 empty - - 12;
#X floatatom 617 575 10 0 0 0 empty - - 12;
#X obj 233 70 t b b;
#X obj 672 611 s mi;
#X obj 756 567 change;
#X connect 0 0 15 0 empty;
#X connect 1 0 15 0 empty;
#X connect 2 0 3 0 empty;
#X connect 3 0 16 0 empty;
#X connect 4 0 5 0 empty;
#X connect 4 0 15 1 empty;
#X connect 6 0 10 0 empty;
#X connect 7 0 11 0 empty;
#X connect 8 0 12 0 empty;
#X connect 10 0 0 0 empty;
#X connect 11 0 1 0 empty;
#X connect 12 0 2 0 empty;
#X connect 13 0 14 0 empty;
#X connect 13 1 4 1 empty;
#X connect 14 0 4 0 empty;
#X connect 15 0 16 0 empty;
#X connect 16 0 17 0 empty;
#X connect 16 0 18 0 empty;
#X connect 16 0 19 0 empty;
#X connect 16 0 44 0 empty;
#X connect 16 0 68 0 empty;
#X connect 17 0 16 1 empty;
#X connect 19 0 20 0 empty;
#X connect 19 0 30 0 empty;
#X connect 19 0 53 0 empty;
#X connect 19 0 63 0 empty;
#X connect 19 0 68 1 empty;
#X connect 21 0 24 1 empty;
#X connect 22 0 23 0 empty;
#X connect 22 1 21 1 empty;
#X connect 23 0 21 0 empty;
#X connect 24 0 19 1 empty;
#X connect 24 0 43 0 empty;
#X connect 24 0 59 0 empty;
#X connect 24 0 71 1 empty;
#X connect 25 0 38 0 empty;
#X connect 25 1 22 0 empty;
#X connect 37 0 13 0 empty;
#X connect 37 0 50 0 empty;
#X connect 38 0 24 0 empty;
#X connect 39 0 25 0 empty;
#X connect 40 0 24 0 empty;
#X connect 40 0 42 0 empty;
#X connect 41 0 42 0 empty;
#X connect 41 0 67 0 empty;
#X connect 42 0 44 1 empty;
#X connect 42 0 60 0 empty;
#X connect 43 0 42 0 empty;
#X connect 43 1 42 1 empty;
#X connect 44 0 49 0 empty;
#X connect 44 0 58 0 empty;
#X connect 45 0 47 0 empty;
#X connect 46 0 45 0 empty;
#X connect 46 1 45 1 empty;
#X connect 49 0 46 0 empty;
#X connect 50 0 61 0 empty;
#X connect 51 0 74 0 empty;
#X connect 52 0 50 0 empty;
#X connect 59 0 26 0 empty;
#X connect 62 0 40 0 empty;
#X connect 63 0 29 0 empty;
#X connect 63 0 54 0 empty;
#X connect 63 0 64 0 empty;
#X connect 64 0 28 0 empty;
#X connect 64 0 55 0 empty;
#X connect 64 0 65 0 empty;
#X connect 65 0 27 0 empty;
#X connect 65 0 52 0 empty;
#X connect 65 0 56 0 empty;
#X connect 65 0 66 0 empty;
#X connect 66 0 31 0 empty;
#X connect 66 0 57 0 empty;
#X connect 67 0 70 1 empty;
#X connect 68 0 69 0 empty;
#X connect 68 0 71 0 empty;
#X connect 70 0 73 0 empty;
#X connect 70 0 76 0 empty;
#X connect 71 0 72 0 empty;
#X connect 71 0 70 0 empty;
#X connect 74 0 67 0 empty;
#X connect 74 0 61 0 empty;
#X connect 74 0 60 0 empty;
#X connect 74 0 59 0 empty;
#X connect 74 1 41 0 empty;
#X connect 74 1 37 0 empty;
#X connect 76 0 75 0 empty;
#X coords 0 -1 1 1 120 60 1 100 100;
