#N canvas 827 239 800 400 12;
#N canvas 0 0 450 250 (subpatch) 0;
#X array \$0-melo 96 float 2;
#X coords 0 127 96 0 200 140 1;
#X restore 395 38 graph;
#X floatatom 33 106 11 0 0 0 - - - 16;
#X obj 33 168 s \$0-melo, f 10;
#X msg 33 139 resize \$1, f 9;
#X obj 33 72 value cn16;
#X obj 33 38 r cycle;
#X obj 159 38 r change;
#X obj 159 86 mg-randint 1 3;
#X obj 159 128 select 1 2 3;
#X obj 246 38 bng 25 250 50 0 empty empty empty 17 7 0 10 #191919 #e1e1e1 #e1e1e1;
#X obj 159 183 i 1;
#X obj 203 183 i 2;
#X obj 246 183 i 4;
#X obj 159 375 until, f 5;
#X obj 159 409 f, f 5;
#X obj 193 408 + 1, f 5;
#X obj 159 444 t b f, f 5;
#X floatatom 328 325 5 0 0 0 - - - 0;
#X obj 314 262 r ci16;
#X obj 159 342 f;
#X obj 219 346 f 0;
#X floatatom 269 474 22 0 0 0 - - - 36;
#X obj 233 303 t b b;
#X obj 208 518 f 0;
#X obj 81 637 tabwrite \$0-melo;
#X obj 265 587 random 3;
#X obj 265 631 select 0 1 2;
#N canvas 0 0 450 250 (subpatch) 0;
#X array \$0-trig 96 float 0;
#X coords 0 127 95 0 200 140 1;
#X restore 600 38 graph;
#X obj 590 243 bng 28 250 50 0 empty empty empty 17 7 0 10 #191919 #e1e1e1 #e1e1e1;
#X obj 62 201 s \$0-trig, f 10;
#X obj 590 286 mgl-makemelo1 \$0-melo \$0-trig;
#X connect 1 0 3 0;
#X connect 1 0 19 1;
#X connect 3 0 2 0;
#X connect 3 0 29 0;
#X connect 4 0 1 0;
#X connect 5 0 4 0;
#X connect 6 0 7 0;
#X connect 7 0 8 0;
#X connect 8 0 10 0;
#X connect 8 1 11 0;
#X connect 8 2 12 0;
#X connect 9 0 7 0;
#X connect 9 0 22 0;
#X connect 13 0 14 0;
#X connect 14 0 15 0;
#X connect 14 0 16 0;
#X connect 15 0 14 1;
#X connect 16 1 21 0;
#X connect 16 1 24 1;
#X connect 18 0 17 0;
#X connect 19 0 13 0;
#X connect 20 0 14 1;
#X connect 20 0 23 1;
#X connect 22 0 19 0;
#X connect 22 1 20 0;
#X connect 28 0 30 0;
