#N canvas 655 378 965 581 12;
#X floatatom 189 345 5 0 0 0 - - - 0;
#X floatatom 359 345 5 0 0 0 - - - 0;
#X floatatom 550 345 5 0 0 0 - - - 0;
#X msg 90 103 0;
#X msg 126 103 1;
#X msg 166 103 2;
#X obj 90 34 t b b;
#X floatatom 715 345 5 0 0 0 - - - 0;
#X floatatom 886 345 5 0 0 0 - - - 0;
#X msg 202 103 3;
#X msg 245 103 4;
#X obj 69 345 mg-simplevoice;
#X obj 239 345 mg-simplevoice;
#X obj 409 345 mg-simplevoice;
#X obj 595 345 mg-simplevoice;
#X obj 765 345 mg-simplevoice;
#X obj 90 11 r newchord;
#X obj 90 137 tabread chordnotes;
#X obj 348 142 tabread chordnotes;
#X obj 147 165 tabread chordnotes;
#X obj 194 197 tabread chordnotes;
#X obj 398 204 tabread chordnotes;
#X obj 283 543 throw~ L;
#X obj 371 545 throw~ R;
#X obj 258 466 *~ 0.005;
#X connect 3 0 17 0 empty;
#X connect 4 0 19 0 empty;
#X connect 5 0 20 0 empty;
#X connect 6 0 3 0 empty;
#X connect 6 1 4 0 empty;
#X connect 6 1 5 0 empty;
#X connect 6 1 9 0 empty;
#X connect 6 1 10 0 empty;
#X connect 9 0 18 0 empty;
#X connect 10 0 21 0 empty;
#X connect 11 0 24 0 empty;
#X connect 12 0 24 0 empty;
#X connect 13 0 24 0 empty;
#X connect 14 0 24 0 empty;
#X connect 16 0 6 0 empty;
#X connect 17 0 0 0 empty;
#X connect 17 0 11 0 empty;
#X connect 18 0 7 0 empty;
#X connect 18 0 14 0 empty;
#X connect 19 0 1 0 empty;
#X connect 19 0 12 0 empty;
#X connect 20 0 2 0 empty;
#X connect 20 0 13 0 empty;
#X connect 21 0 8 0 empty;
#X connect 21 0 15 0 empty;
#X connect 24 0 22 0 empty;
#X connect 24 0 23 0 empty;
