#N canvas 512 482 450 560 12;
#X obj 102 204 mtof;
#X obj 102 236 phasor~;
#X obj 102 8 r newchord;
#X obj 102 143 tabread chordnotes;
#X obj 102 174 + 36;
#X obj 264 144 r mi16;
#X obj 264 242 == 0;
#X obj 234 350 tgl 25 0 empty empty empty 17 7 0 10 #e4e4e4 #4d4d4d #4d4d4d 0 1;
#X obj 98 386 *~;
#X obj 55 613 throw~ L;
#X obj 140 613 throw~ R;
#X obj 355 134 inlet;
#X msg 355 187 bang;
#X obj 355 222 f 0;
#X obj 408 221 + 1;
#X obj 264 199 mod 2;
#X msg 112 417 1;
#X obj 355 302 == 0;
#X obj 355 259 mod 2;
#X obj 98 451 *~ 1;
#X obj 102 269 lop~ 400;
#X obj 213 70 route 0 1 2 3 4 5;
#X obj 213 44 mg-randint 0 4;
#X obj 213 101 i 0;
#X obj 264 101 i 2;
#X obj 102 113 i;
#X obj 104 351 *~ 1;
#X obj 98 487 clip~ -0.9 0.9;
#X obj 98 519 *~ 1;
#X obj 102 308 *~ 0.04;
#X obj 102 54 t b b;
#X connect 0 0 1 0;
#X connect 1 0 20 0;
#X connect 2 0 30 0;
#X connect 3 0 4 0;
#X connect 4 0 0 0;
#X connect 5 0 15 0;
#X connect 7 0 8 1;
#X connect 8 0 19 0;
#X connect 11 0 12 0;
#X connect 12 0 13 0;
#X connect 13 0 14 0;
#X connect 13 0 18 0;
#X connect 14 0 13 1;
#X connect 15 0 6 0;
#X connect 16 0 19 1;
#X connect 17 0 7 0;
#X connect 18 0 17 0;
#X connect 19 0 27 0;
#X connect 20 0 29 0;
#X connect 21 0 23 0;
#X connect 21 1 23 0;
#X connect 21 2 23 0;
#X connect 21 3 23 0;
#X connect 21 4 24 0;
#X connect 22 0 21 0;
#X connect 23 0 25 1;
#X connect 24 0 25 1;
#X connect 25 0 3 0;
#X connect 26 0 8 0;
#X connect 27 0 28 0;
#X connect 28 0 9 0;
#X connect 28 0 10 0;
#X connect 29 0 26 0;
#X connect 30 0 25 0;
#X connect 30 1 22 0;
