#N canvas 676 153 965 581 12;
#X floatatom 189 345 5 0 0 0 - - - 0;
#X floatatom 359 345 5 0 0 0 - - - 0;
#X floatatom 550 345 5 0 0 0 - - - 0;
#X msg 90 103 0;
#X msg 126 103 1;
#X msg 166 103 2;
#X obj 90 34 t b b;
#X floatatom 715 345 5 0 0 0 - - - 0;
#X floatatom 886 345 5 0 0 0 - - - 0;
#X msg 202 103 3;
#X msg 245 103 4;
#X obj 69 345 mg-simplevoice;
#X obj 239 345 mg-simplevoice;
#X obj 409 345 mg-simplevoice;
#X obj 595 345 mg-simplevoice;
#X obj 765 345 mg-simplevoice;
#X obj 90 11 r newchord;
#X obj 90 137 tabread chordnotes;
#X obj 348 142 tabread chordnotes;
#X obj 147 165 tabread chordnotes;
#X obj 194 197 tabread chordnotes;
#X obj 398 204 tabread chordnotes;
#X obj 290 812 throw~ L;
#X obj 409 812 throw~ R;
#X obj 844 465 dbtorms;
#X obj 846 406 b;
#X obj 765 496 *~;
#X obj 690 466 dbtorms;
#X obj 692 407 b;
#X obj 611 497 *~;
#X obj 690 436 mg-randint 85 100;
#X obj 494 435 dbtorms;
#X obj 496 376 b;
#X obj 415 466 *~;
#X obj 494 405 mg-randint 80 100;
#X obj 844 435 mg-randint 40 80;
#X obj 319 753 hv.reverb~;
#X obj 462 614 mg-randint 0 100;
#X obj 566 737 -;
#X obj 566 703 i 100;
#X obj 464 578 b;
#X obj 442 694 symbol dry-gain;
#X obj 632 721 t b f;
#X obj 632 786 pack s f;
#X obj 632 753 symbol wet-gain;
#X obj 462 535 r mi2;
#X obj 339 597 *~ 0.1;
#X obj 566 662 t b f;
#X obj 445 662 t b f;
#X obj 442 721 pack s f;
#X connect 2 0 32 0;
#X connect 3 0 17 0;
#X connect 4 0 19 0;
#X connect 5 0 20 0;
#X connect 6 0 3 0;
#X connect 6 1 4 0;
#X connect 6 1 5 0;
#X connect 6 1 9 0;
#X connect 6 1 10 0;
#X connect 7 0 28 0;
#X connect 8 0 25 0;
#X connect 9 0 18 0;
#X connect 10 0 21 0;
#X connect 11 0 46 0;
#X connect 12 0 46 0;
#X connect 13 0 33 0;
#X connect 14 0 29 0;
#X connect 15 0 26 0;
#X connect 16 0 6 0;
#X connect 17 0 0 0;
#X connect 17 0 11 0;
#X connect 18 0 7 0;
#X connect 18 0 14 0;
#X connect 19 0 1 0;
#X connect 19 0 12 0;
#X connect 20 0 2 0;
#X connect 20 0 13 0;
#X connect 21 0 8 0;
#X connect 21 0 15 0;
#X connect 24 0 26 1;
#X connect 25 0 35 0;
#X connect 27 0 29 1;
#X connect 28 0 30 0;
#X connect 29 0 46 0;
#X connect 30 0 27 0;
#X connect 31 0 33 1;
#X connect 32 0 34 0;
#X connect 33 0 46 0;
#X connect 34 0 31 0;
#X connect 35 0 24 0;
#X connect 36 0 22 0;
#X connect 36 1 23 0;
#X connect 37 0 47 0;
#X connect 37 0 48 0;
#X connect 38 0 42 0;
#X connect 39 0 38 0;
#X connect 40 0 37 0;
#X connect 41 0 49 0;
#X connect 42 0 44 0;
#X connect 42 1 43 1;
#X connect 44 0 43 0;
#X connect 45 0 40 0;
#X connect 46 0 36 0;
#X connect 47 0 39 0;
#X connect 47 1 38 1;
#X connect 48 0 41 0;
#X connect 48 1 49 1;
#X connect 49 0 36 1;
