#N canvas 180 24 594 630 12;
#X obj 27 240 inlet;
#N canvas 0 50 450 250 (subpatch) 0;
#X array \$0-pulse 2 float 3;
#A 0 1 0;
#X coords 0 1 2 -1 200 140 1 0 0;
#X restore 238 229 graph;
#X obj 264 472 tabwrite \$0-pulse;
#X obj 264 447 f 1;
#X obj 380 447 f 0;
#X obj 264 415 t b b;
#X obj 264 386 loadbang;
#X obj 27 301 tabplay~ \$0-pulse;
#X obj 26 389 vcf~;
#X obj 39 357 sig~;
#X obj 167 257 vsl 20 170 50 20000 1 0 empty empty empty 0 -9 0 12 #fcfcfc #000000 #000000 0 1;
#X floatatom 164 460 5 0 0 0 - - - 0;
#X obj 205 256 vsl 20 170 0.1 4 0 0 empty empty empty 0 -9 0 12 #fcfcfc #000000 #000000 0 1;
#X floatatom 205 460 5 0 0 0 - - - 0;
#N canvas 0 0 1920 1018 (subpatch) 0;
#X array \$0-p 4410 float 2;
#X coords 0 -1 4410 1 95 40 1 0 0;
#X restore 101 143 graph;
#X obj 105 182 hsl 50 15 50 100 0 1 empty empty empty -2 -10 0 12 #c6ffc7 #000000 #000000 4900 1;
#X obj 160 182 hsl 35 15 0 100 0 1 empty empty empty -2 -10 0 12 #ffe3c6 #000000 #000000 2346 1;
#X obj 493 307 loadbang;
#X obj 493 347 metro 100;
#X obj 519 214 bng 20 250 50 0 empty empty empty 0 -10 0 12 #fcfcfc #000000 #000000;
#X obj 72 271 bng 20 250 50 0 empty empty empty 0 -10 0 12 #fcfcfc #000000 #000000;
#X obj 434 446 tabwrite~ \$0-p;
#X obj 251 29 r change;
#X obj 250 86 random 127;
#X obj 45 559 mg-pan;
#X obj 794 354 dbtorms;
#X obj 795 410 line~;
#X obj 795 381 t f 20;
#X obj 792 271 / 127;
#X obj 792 297 * 50;
#X obj 793 327 + 50;
#X obj 26 424 *~;
#X obj 45 639 throw~ L;
#X obj 81 599 throw~ R;
#X obj 55 461 mg-smalldel 5 5;
#X connect 0 0 7 0;
#X connect 0 0 20 0;
#X connect 3 0 2 0;
#X connect 4 0 2 1;
#X connect 5 0 3 0;
#X connect 5 1 4 0;
#X connect 6 0 5 0;
#X connect 7 0 8 0;
#X connect 8 0 31 0;
#X connect 9 0 8 1;
#X connect 10 0 11 0;
#X connect 10 0 9 0;
#X connect 12 0 13 0;
#X connect 12 0 8 2;
#X connect 15 0 28 0;
#X connect 16 0 24 1;
#X connect 17 0 18 0;
#X connect 18 0 21 0;
#X connect 19 0 18 0;
#X connect 22 0 23 0;
#X connect 23 0 16 0;
#X connect 24 0 32 0;
#X connect 24 1 33 0;
#X connect 25 0 27 0;
#X connect 26 0 31 1;
#X connect 27 0 26 0;
#X connect 27 1 26 1;
#X connect 28 0 29 0;
#X connect 29 0 30 0;
#X connect 30 0 25 0;
#X connect 31 0 21 0;
#X connect 31 0 24 0;
#X connect 31 0 34 0;
#X connect 34 0 24 0;
#X coords 0 -1 1 1 98 98 1 100 100;
