#N canvas 512 482 450 560 12;
#X obj 102 164 mtof;
#X obj 102 225 phasor~;
#X msg 72 285 0.5;
#X msg 102 69 0;
#X obj 102 28 r newchord;
#X obj 102 103 tabread chordnotes;
#X obj 102 134 + 36;
#X obj 265 237 r mi16;
#X obj 264 291 mod 2;
#X obj 264 334 == 0;
#X obj 271 429 tgl 25 0 empty empty empty 17 7 0 10 #e4e4e4 #4d4d4d #4d4d4d 0 1;
#X obj 167 417 *~;
#X obj 137 535 throw~ L;
#X obj 258 528 throw~ R;
#X obj 132 365 *~ 0.02;
#X connect 0 0 1 0 empty;
#X connect 1 0 14 0 empty;
#X connect 2 0 14 1 empty;
#X connect 3 0 5 0 empty;
#X connect 4 0 3 0 empty;
#X connect 5 0 6 0 empty;
#X connect 6 0 0 0 empty;
#X connect 7 0 8 0 empty;
#X connect 8 0 9 0 empty;
#X connect 9 0 10 0 empty;
#X connect 10 0 11 1 empty;
#X connect 11 0 12 0 empty;
#X connect 11 0 13 0 empty;
#X connect 14 0 11 0 empty;
