#N canvas 827 239 527 327 12;
#X obj 229 80 inlet;
#X obj 308 186 i \$1;
#X obj 263 186 i \$2;
#X obj 263 234 -;
#X obj 263 134 t b b;
#X obj 229 308 random;
#X obj 229 337 +;
#X obj 275 80 loadbang;
#X obj 229 375 outlet;
#X obj 263 273 + 1;
#X connect 0 0 5 0;
#X connect 1 0 6 1;
#X connect 1 0 3 1;
#X connect 2 0 3 0;
#X connect 3 0 9 0;
#X connect 4 0 2 0;
#X connect 4 1 1 0;
#X connect 5 0 6 0;
#X connect 6 0 8 0;
#X connect 7 0 4 0;
#X connect 9 0 5 1;
