#N canvas 549 -981 921 895 12;
#X obj 16 522 line~;
#X obj 16 485 pack 0 5;
#X obj 13 572 inlet~;
#X obj 104 610 *~;
#X obj 105 562 vd~ \$0-delL;
#X obj 13 812 delwrite~ \$0-delL 2000;
#X obj 272 818 outlet~;
#N canvas 735 359 450 300 jail 1;
#X obj 10 33 hip~ 5;
#X obj 10 11 inlet~;
#X obj 10 77 outlet~;
#X obj 10 53 clip~ -1 1;
#X connect 0 0 3 0 empty;
#X connect 1 0 0 0 empty;
#X connect 3 0 2 0 empty;
#X restore 14 766 pd jail;
#X obj 346 349 vsl 20 130 0 127 0 1 \$0-cutoff empty Cutoff 0 -9 0 12 #fcfcfc #000000 #000000 11681 1;
#X obj 301 341 vsl 20 140 0 127 0 1 \$0-feedback empty Feedback 0 -9 0 12 #fcfcfc #000000 #000000 3892 1;
#X obj 205 497 r \$0-feedback;
#X obj 368 308 tgl 20 1 \$0-filteronoff empty empty 0 -10 0 12 #fcfcfc #000000 #000000 1 1;
#N canvas 282 248 678 425 filter 1;
#X obj 114 40 inlet~;
#X obj 113 367 outlet~;
#X obj 271 104 mtof;
#X msg 271 136 \$1 100;
#X obj 271 175 line~;
#X obj 259 225 vcf~;
#X obj 270 53 r \$0-cutoff;
#X obj 336 75 r \$0-Q;
#X floatatom 136 277 5 0 0 0 - - - 0;
#X obj 119 224 r \$0-filteronoff;
#X obj 335 120 / 32;
#X obj 391 259 lop~;
#X obj 392 289 lop~;
#X obj 391 319 lop~;
#X obj 389 350 lop~;
#X obj 270 84 + 32;
#X obj 469 287 lop~;
#X obj 470 317 lop~;
#X obj 469 347 lop~;
#X obj 467 378 lop~;
#X obj 114 316 mg-multiplex2~;
#X connect 0 0 11 0 empty;
#X connect 0 0 5 0 empty;
#X connect 0 0 20 0 empty;
#X connect 2 0 3 0 empty;
#X connect 2 0 11 1 empty;
#X connect 2 0 12 1 empty;
#X connect 2 0 13 1 empty;
#X connect 2 0 14 1 empty;
#X connect 2 0 16 1 empty;
#X connect 2 0 17 1 empty;
#X connect 2 0 18 1 empty;
#X connect 2 0 19 1 empty;
#X connect 3 0 4 0 empty;
#X connect 4 0 5 1 empty;
#X connect 6 0 15 0 empty;
#X connect 7 0 10 0 empty;
#X connect 9 0 8 0 empty;
#X connect 9 0 20 2 empty;
#X connect 10 0 5 2 empty;
#X connect 11 0 12 0 empty;
#X connect 12 0 13 0 empty;
#X connect 13 0 14 0 empty;
#X connect 14 0 16 0 empty;
#X connect 15 0 2 0 empty;
#X connect 16 0 17 0 empty;
#X connect 17 0 18 0 empty;
#X connect 18 0 19 0 empty;
#X connect 19 0 20 1 empty;
#X connect 20 0 1 0 empty;
#X restore 121 655 pd filter \$0;
#X obj 435 350 vsl 20 130 0 127 0 1 \$0-volume empty Volume 0 -9 0 12 #fcfcfc #000000 #000000 12900 1;
#X obj 437 595 dbtorms;
#X obj 438 651 line~;
#X obj 438 622 t f 20;
#X obj 435 512 / 127;
#X obj 191 724 *~;
#X obj 490 69 r change;
#X obj 435 538 * 10;
#X obj 436 568 + 90;
#X obj 436 309 tgl 20 1 \$0-onoff empty empty 0 -10 0 12 #fcfcfc #000000 #000000 1 1;
#X obj 233 690 *~;
#X obj 298 606 r \$0-onoff;
#X obj 506 170 random 2;
#X obj 16 376 mtof;
#X obj 16 411 expr 1 / $f1;
#X obj 16 444 * 1000;
#X msg 16 340 24, f 5;
#X obj 146 168 bng 19 250 50 0 empty empty empty 0 -10 0 12 #fcfcfc #000000 #000000;
#X floatatom 34 289 5 0 0 0 - - - 0;
#X msg 72 152 0;
#X obj 212 103 bng 19 250 50 0 empty empty empty 0 -10 0 12 #fcfcfc #000000 #000000;
#X obj 121 280 f \$1;
#X obj 121 249 loadbang;
#X obj 123 308 * 12;
#X obj 209 175 + 0;
#X obj 211 140 random \$2;
#X obj 205 534 / 127;
#X obj 205 563 / 4;
#X obj 205 608 + 0.7;
#X obj 237 383 +;
#X obj 237 351 / 180;
#X floatatom 340 101 5 0 0 0 - - - 0;
#X obj 236 411 + 0.35;
#X obj 584 40 lfo 64;
#X floatatom 585 132 5 0 0 0 - - - 0;
#X obj 582 205 spigot;
#X obj 646 178 tgl 20 0 empty empty empty 0 -10 0 12 #fcfcfc #000000 #000000 0 1;
#X obj 648 138 random 2;
#X obj 584 66 / 2;
#X obj 584 93 + 64;
#X obj 422 143 + 64;
#X obj 422 116 random 64;
#X obj 300 40 mg-valpattern fullrand;
#X obj 72 117 r newchord;
#X obj 211 62 r mi8;
#X obj 72 226 tabread chordnotes_unwrapped;
#X obj 72 328 + 48;
#X connect 0 0 4 0 empty;
#X connect 1 0 0 0 empty;
#X connect 2 0 7 0 empty;
#X connect 3 0 7 0 empty;
#X connect 3 0 12 0 empty;
#X connect 3 0 18 0 empty;
#X connect 4 0 3 0 empty;
#X connect 7 0 5 0 empty;
#X connect 10 0 39 0 empty;
#X connect 13 0 17 0 empty;
#X connect 14 0 16 0 empty;
#X connect 15 0 23 0 empty;
#X connect 16 0 15 0 empty;
#X connect 16 1 15 1 empty;
#X connect 17 0 20 0 empty;
#X connect 18 0 6 0 empty;
#X connect 19 0 25 0 empty;
#X connect 19 0 54 0 empty;
#X connect 19 0 50 0 empty;
#X connect 20 0 21 0 empty;
#X connect 21 0 14 0 empty;
#X connect 23 0 18 1 empty;
#X connect 24 0 23 1 empty;
#X connect 26 0 27 0 empty;
#X connect 27 0 28 0 empty;
#X connect 28 0 1 0 empty;
#X connect 29 0 26 0 empty;
#X connect 32 0 58 0 empty;
#X connect 33 0 38 0 empty;
#X connect 34 0 36 0 empty;
#X connect 35 0 34 0 empty;
#X connect 36 0 59 1 empty;
#X connect 37 0 58 0 empty;
#X connect 38 0 37 0 empty;
#X connect 39 0 40 0 empty;
#X connect 40 0 41 0 empty;
#X connect 41 0 3 1 empty;
#X connect 42 0 45 0 empty;
#X connect 43 0 42 0 empty;
#X connect 45 0 41 1 empty;
#X connect 46 0 51 0 empty;
#X connect 47 0 48 0 empty;
#X connect 48 0 8 0 empty;
#X connect 49 0 48 1 empty;
#X connect 50 0 49 0 empty;
#X connect 51 0 52 0 empty;
#X connect 52 0 47 0 empty;
#X connect 53 0 8 0 empty;
#X connect 54 0 53 0 empty;
#X connect 55 0 44 0 empty;
#X connect 55 0 9 0 empty;
#X connect 56 0 32 0 empty;
#X connect 56 0 30 0 empty;
#X connect 57 0 33 0 empty;
#X connect 58 0 31 0 empty;
#X connect 58 0 59 0 empty;
#X connect 59 0 26 0 empty;
#X connect 59 0 43 0 empty;
