#N canvas 0 25 250 324 12;
#X obj 110 80 + 60;
#X obj 110 110 mtof;
#X floatatom 26 150 10 0 0 0 - - - 16;
#X obj 110 150 osc~;
#X obj 110 40 inlet;
#X obj 110 220 outlet~;
#X connect 0 0 1 0 empty;
#X connect 1 0 2 0 empty;
#X connect 1 0 3 0 empty;
#X connect 3 0 5 0 empty;
#X connect 4 0 0 0 empty;
