#N canvas 20 632 147 350 12;
#N canvas 0 50 450 250 (subpatch) 0;
#X array Scale 7 float 3;
#A 0 7 9 11 12 14 16 18;
#X coords 0 24 7 0 200 140 1 0 0;
#X restore 321 36 graph;
#X msg 51 150 bang;
#X msg 113 150 cfifth -1;
#X msg 196 150 cfifth 1;
#X msg 11 62 2;
#X obj 51 319 mgl-scale Scale;
#X symbolatom 59 383 18 0 0 0 - - - 12;
#X obj 113 24 r change;
#X obj 113 62 random 2;
#X obj 228 24 bng 25 250 50 0 empty empty empty 17 7 0 10 #e4e4e4 #4d4d4d #4d4d4d;
#X obj 113 96 sel 0 1;
#X text 311 209 Il faut choisir les points d'inflexion;
#N canvas 0 50 450 250 (subpatch) 0;
#X array ipoints 8 float 2;
#X coords 0 3 8 -1 129 52 1 0 0;
#X restore 59 416 graph;
#X obj 407 555 mgl-setinfpoints ipoints;
#X obj 240 257 bng 25 250 50 0 empty empty empty 17 7 0 10 #e4e4e4 #4d4d4d #4d4d4d;
#X obj 240 472 f 16;
#X obj 265 397 value cnm;
#X obj 289 447 array size;
#X obj 240 311 t b b b;
#X msg 350 367 ipoints;
#X obj 356 419 symbol;
#X obj 278 255 loadbang;
#X obj 363 264 r change;
#N canvas 0 50 450 250 (subpatch) 0;
#X array chords 8 float 2;
#X coords 0 8 8 -1 128 61 1;
#X restore 59 480 graph;
#X obj 240 555 mgl-suite ipoints chords;
#X obj 240 506 t f f;
#X obj 240 200 inlet;
#X obj 413 447 array size;
#X obj 480 419 symbol;
#X msg 474 367 chords;
#N canvas 0 50 450 250 (subpatch) 0;
#X array chordnotes 7 float 2;
#X coords 0 32 7 -1 200 140 1;
#X restore 564 36 graph;
#N canvas 0 50 450 250 (subpatch) 0;
#X array chordnotes_unwrapped 7 float 2;
#X coords 0 12 7 -1 122 86 1;
#X restore 59 559 graph;
#X obj 132 179 r mi;
#X obj 132 294 tabread chords;
#X obj 132 208 t b f;
#X obj 132 257 s newchord;
#X obj 660 377 r newchord;
#X obj 660 442 bng 25 250 50 0 empty empty empty 17 7 0 10 #e4e4e4 #4d4d4d #4d4d4d;
#X floatatom 693 599 6 0 0 0 empty - - 16;
#X obj 693 547 tabread chordnotes;
#X msg 693 500 0;
#X symbolatom 59 659 18 0 0 0 - - - 12;
#X floatatom 136 925 6 0 0 0 empty - - 16;
#X msg 172 96 tominor;
#X msg 240 96 tomajor;
#X connect 1 0 5 0 empty;
#X connect 2 0 5 0 empty;
#X connect 3 0 5 0 empty;
#X connect 4 0 5 0 empty;
#X connect 5 0 6 0 empty;
#X connect 5 1 41 0 empty;
#X connect 7 0 8 0 empty;
#X connect 8 0 10 0 empty;
#X connect 9 0 8 0 empty;
#X connect 10 0 2 0 empty;
#X connect 10 1 3 0 empty;
#X connect 14 0 18 0 empty;
#X connect 15 0 25 0 empty;
#X connect 16 0 15 1 empty;
#X connect 16 0 17 0 empty;
#X connect 16 0 27 0 empty;
#X connect 18 0 15 0 empty;
#X connect 18 1 16 0 empty;
#X connect 18 2 19 0 empty;
#X connect 18 2 29 0 empty;
#X connect 19 0 20 0 empty;
#X connect 20 0 17 1 empty;
#X connect 21 0 18 0 empty;
#X connect 22 0 18 0 empty;
#X connect 25 0 24 0 empty;
#X connect 25 1 13 0 empty;
#X connect 26 0 5 0 empty;
#X connect 28 0 27 1 empty;
#X connect 29 0 28 0 empty;
#X connect 32 0 34 0 empty;
#X connect 33 0 5 1 empty;
#X connect 34 0 35 0 empty;
#X connect 34 1 33 0 empty;
#X connect 36 0 37 0 empty;
#X connect 36 0 40 0 empty;
#X connect 39 0 38 0 empty;
#X connect 40 0 39 0 empty;
#X connect 43 0 5 0 empty;
#X connect 44 0 5 0 empty;
#X coords 0 0 1 1 147 346 1 48 346;
