#N canvas 24 233 550 676 12;
#X obj 58 217 noise~;
#X obj 59 253 lop~ 3000;
#X obj 60 292 hip~ 1000;
#X obj 104 342 osc~ 180;
#X obj 104 368 *~ 0.5;
#X obj 61 409 *~;
#X obj 217 17 inlet;
#X obj 217 303 vline~;
#X obj 198 349 *~;
#X obj 324 399 loadbang;
#X obj 324 439 metro 100;
#N canvas 0 0 1920 1018 (subpatch) 0;
#X array \$0-snare 4410 float 2;
#X coords 0 -1 4410 1 95 40 1 0 0;
#X restore 102 142 graph;
#X obj 104 183 hsl 50 15 0 127 0 1 empty empty empty -2 -10 0 12 #c6ffc7 #000000 #000000 4900 1;
#X obj 160 184 hsl 35 15 0 100 0 1 empty empty empty -2 -10 0 12 #ffe3c6 #000000 #000000 1900 1;
#X obj 166 394 *~;
#X obj 279 488 tabwrite~ \$0-snare;
#X obj 217 225 f;
#X obj 471 127 f \$4;
#X obj 426 77 loadbang;
#X obj 313 7 inlet;
#X obj 360 128 f \$1;
#X obj 399 128 f \$2;
#X obj 436 128 f \$3;
#X msg 218 267 1 1 0 \, 0 \$1 1;
#X obj 313 47 route lpf hpf oscf dur vol pan;
#X obj 327 303 dbtorms;
#X obj 328 359 line~;
#X obj 328 330 t f 20;
#X obj 325 220 / 127;
#X obj 325 246 * 50;
#X obj 326 276 + 50;
#X obj 223 89 bang;
#X obj 83 467 lop~ 10000;
#X obj 174 422 * 300;
#X obj 105 517 mg-pan;
#X obj 84 563 throw~ L;
#X obj 199 592 throw~ R;
#X connect 0 0 1 0 empty;
#X connect 1 0 2 0 empty;
#X connect 2 0 5 0 empty;
#X connect 3 0 4 0 empty;
#X connect 4 0 5 0 empty;
#X connect 5 0 15 0 empty;
#X connect 5 0 32 0 empty;
#X connect 6 0 31 0 empty;
#X connect 6 0 33 0 empty;
#X connect 7 0 8 0 empty;
#X connect 7 0 8 1 empty;
#X connect 8 0 14 0 empty;
#X connect 9 0 10 0 empty;
#X connect 10 0 15 0 empty;
#X connect 12 0 28 0 empty;
#X connect 13 0 34 1 empty;
#X connect 14 0 5 1 empty;
#X connect 16 0 23 0 empty;
#X connect 17 0 16 1 empty;
#X connect 18 0 17 0 empty;
#X connect 18 0 20 0 empty;
#X connect 18 0 21 0 empty;
#X connect 18 0 22 0 empty;
#X connect 19 0 24 0 empty;
#X connect 20 0 1 1 empty;
#X connect 21 0 2 1 empty;
#X connect 22 0 3 1 empty;
#X connect 23 0 7 0 empty;
#X connect 24 0 1 1 empty;
#X connect 24 1 2 1 empty;
#X connect 24 2 3 1 empty;
#X connect 24 3 16 1 empty;
#X connect 24 4 12 0 empty;
#X connect 24 5 13 0 empty;
#X connect 25 0 27 0 empty;
#X connect 26 0 14 1 empty;
#X connect 27 0 26 0 empty;
#X connect 27 1 26 1 empty;
#X connect 28 0 29 0 empty;
#X connect 29 0 30 0 empty;
#X connect 30 0 25 0 empty;
#X connect 31 0 16 0 empty;
#X connect 32 0 34 0 empty;
#X connect 33 0 32 1 empty;
#X connect 34 0 35 0 empty;
#X connect 34 1 36 0 empty;
#X coords 0 -1 1 1 100 100 1 100 100;
