#N canvas 387 250 1129 622 12;
#X obj 25 97 mg-metro;
#X obj 277 150 bng 20 250 50 0 empty empty empty 0 -10 0 12 #fcfcfc #000000 #000000;
#X obj 576 359 bng 20 250 50 0 empty empty empty 0 -10 0 12 #fcfcfc #000000 #000000;
#X obj 274 181 mg-bangpattern kickpat1;
#X obj 573 398 mg-bangpattern snarepat1;
#X obj 351 227 mg-kick 200 20 10 10;
#X obj 573 432 mg-snare 5000 5000 100 20;
#X obj 25 226 mg-scale;
#X obj 165 137 mg-changer;
#X obj 165 102 bng 25 250 50 0 empty empty empty 17 7 0 10 #e4e4e4 #4d4d4d #4d4d4d;
#X obj 25 180 bng 25 250 50 0 empty empty empty 17 7 0 10 #e4e4e4 #4d4d4d #4d4d4d;
#X obj 101 166 r ci16;
#X floatatom 101 199 5 0 0 0 empty - - 12;
#X obj 459 157 mg-playchords;
#X obj 459 199 mg-playbass;
#X obj 202 359 mg-eucli 7 4;
#X obj 202 433 mg-hihat 10000 10;
#X obj 202 226 mg-kickdel 150 30 50;
#X obj 337 433 mg-pulse;
#X msg 900 342 vol \$1;
#X obj 853 310 r prechange;
#X obj 759 433 mg-snare 1000 2000 200 20;
#X floatatom 853 344 5 0 0 0 empty - - 12;
#X obj 327 65 catch~ L;
#X obj 345 88 catch~ R;
#X obj 327 128 dac~;
#X obj 337 359 mg-eucli 10 0;
#X obj 25 44 mg-randint 6 9;
#X msg 25 70 numerator \$1;
#X obj 25 16 r change;
#X obj 728 282 r change;
#X msg 728 345 dur \$1;
#X obj 728 310 mg-randint 15 150;
#X obj 456 433 mg-pulse;
#X obj 456 359 mg-eucli 8 2;
#X connect 1 0 3 0;
#X connect 2 0 4 0;
#X connect 3 0 5 0;
#X connect 3 0 17 0;
#X connect 3 1 14 0;
#X connect 4 0 6 0;
#X connect 4 1 21 0;
#X connect 9 0 8 0;
#X connect 10 0 7 0;
#X connect 11 0 12 0;
#X connect 15 0 16 0;
#X connect 19 0 21 1;
#X connect 20 0 19 0;
#X connect 20 0 22 0;
#X connect 23 0 25 0;
#X connect 24 0 25 1;
#X connect 26 0 18 0;
#X connect 27 0 28 0;
#X connect 28 0 0 0;
#X connect 29 0 27 0;
#X connect 30 0 32 0;
#X connect 31 0 6 1;
#X connect 32 0 31 0;
#X connect 34 0 33 0;
