#N canvas 827 239 527 327 12;
#X obj 98 323 mgl-globval a;
#X obj 399 240 mgl-globval a;
#X floatatom 212 147 5 0 0 0 - - - 12;
#X msg 400 186 bang;
#X msg 98 130 hello;
#X obj 28 206 symbol hello;
#X msg 28 68 bang;
#X obj 336 82 route;
#X obj 315 347 print pdprint;
#X connect 1 0 8 0;
#X connect 2 0 0 0;
#X connect 3 0 1 0;
#X connect 4 0 0 0;
#X connect 5 0 0 0;
#X connect 6 0 5 0;
